<svg xmlns="http://www.w3.org/2000/svg" xmlns:xlink="http://www.w3.org/1999/xlink" viewBox="0 0 221 158" width="221" height="158">
    <defs>
        <style>
            .top {
                fill: #b975f7ff;
            }
            .beard {
                fill: #7c17cbff;
            }
            .ringShadow {
                fill: #ffffffff;
            }
            .ring {
                fill: #660033ff;
            }
            .text {
                fill: #ffffffff;
            }
            .shadow {
                fill: #00000080;
            }
        </style>
        <filter id="blur" x="-50%" y="-50%" width="200%" height="200%">
            <feGaussianBlur in="SourceGraphic" stdDeviation="3"/>
        </filter>
        <filter id="blur2" x="-50%" y="-50%" width="200%" height="200%">
            <feGaussianBlur in="SourceGraphic" stdDeviation="2"/>
        </filter>
        <g id="text">
            <path d="M90.58,54.07a1.69,1.69,0,0,0-1.69-1.69h0a1.69,1.69,0,0,0-1.7,1.7v.77a9.49,9.49,0,0,0-6.33-2.47h0a9.44,9.44,0,0,0-6.91,3,10.48,10.48,0,0,0-2.81,7.2,10,10,0,0,0,9.72,10.22h0a9.42,9.42,0,0,0,6.33-2.51v.81a1.72,1.72,0,0,0,1.7,1.7h0a1.73,1.73,0,0,0,1.69-1.7ZM80.86,69.45a6.05,6.05,0,0,1-4.43-2,7,7,0,0,1-1.9-4.86,7.11,7.11,0,0,1,1.89-4.89,6.07,6.07,0,0,1,4.44-2h0a6.64,6.64,0,0,1,6.34,6.87,7.08,7.08,0,0,1-1.88,4.87,6.06,6.06,0,0,1-4.45,2Z"/>
            <path d="M142.93 69.26A6.72 6.72 180 00149.51 62.66V62.36A6.62 6.62 180 10136.28 62.36 6.79 6.79 180 00142.94 69.25ZM142.93 72.72A10.39 10.39 180 01142.93 51.94 9.81 9.81 180 01149.5 54.5V45.44A1.67 1.67 180 01150.01 44.22 1.77 1.77 180 01151.25 43.72 1.75 1.75 180 01152.97 45.44V71A1.74 1.74 180 01151.26 72.72 1.74 1.74 180 01149.5 71V70.18A9.92 9.92 180 01142.94 72.72Z"/>
            <path d="M125.61,69.45a1.86,1.86,0,0,0-1.43,0,1.92,1.92,0,0,0-1,1A12.36,12.36,0,0,1,111.79,78h0a12.35,12.35,0,0,1-11.37-7.51,1.87,1.87,0,0,0-1.72-1.14h0a1.83,1.83,0,0,0-.73.15,1.87,1.87,0,0,0-1,2.45,16.08,16.08,0,0,0,14.8,9.78h0a16.08,16.08,0,0,0,14.8-9.8A1.85,1.85,0,0,0,125.61,69.45Z"/>
        </g>
        <path id="top" d="M95.44,124.11c32.61,11.87,64.76,6.4,78-25.26A64.85,64.85,0,0,0,51.63,54.57C41.45,87.34,62.84,112.25,95.44,124.11Z"/>
    </defs>
    <title>logo</title>
    <path class="beard" d="M176.59,79a64.85,64.85,0,1,1-64.81-64.89A64.86,64.86,0,0,1,176.59,79"/>
    <use xlink:href="#top" class="shadow" filter="url(#blur)" transform="translate(-1, 5)"/>
    <use xlink:href="#top" class="top"/>
    <path class="ringShadow" filter="url(#blur2)" d="M43.34,49.66c-19.75,4.1-28.83,3.39-30.78,11-3.08,12,32.81,35.83,87.51,48.87s96.87,11.14,104.86-.4c2.31-3.33-8.46-16.67-20.26-25.9l.51,1.79c7.21,5.32,11.29,10.78,9.24,16.93-4.15,12.44-42.62,13.32-88.24,3.59C55.65,94.8,21.42,73,24.87,60.94c1.28-4.42,5.49-8.89,15.14-10.26Z"/>
    <path class="ring" d="M48.06,46.79c-18.75.91-36.26,5-38.44,12.57C5.16,74.82,45.37,97,100.07,110.07s105.24,13,109.7-2.47c2.16-7.5-11-18.61-26.56-27.68l-.06,4.37c7.2,5.32,10.53,11.47,9.3,15.76-3.46,12-42.63,12.88-88.43,2S24.4,72.51,27.85,60.51c1.28-4.42,8.28-8.1,17.92-9.47Z"/>
    <use xlink:href="#text" class="shadow" filter="url(#blur)" transform="translate(-2, 3)"/>
    <use xlink:href="#text" class="text"/>
</svg>
