<?xml version="1.0" encoding="UTF-8"?>
<svg version="1.1" xmlns="http://www.w3.org/2000/svg" width="598" height="614">
<path d="M0 0 C1.59080383 0.00323273 1.59080383 0.00323273 3.21374512 0.00653076 C18.8274093 0.05744041 34.04712493 0.46029056 49.4375 3.3125 C50.49001953 3.49522461 51.54253906 3.67794922 52.62695312 3.86621094 C79.45089628 8.61774712 106.06270382 17.09068171 130.4375 29.3125 C131.21657715 29.69728516 131.9956543 30.08207031 132.79833984 30.47851562 C151.66174 39.85458843 169.04306752 51.09876366 185.4375 64.3125 C186.01161621 64.77479004 186.58573242 65.23708008 187.17724609 65.71337891 C193.95583012 71.21783834 200.41800819 77.05599066 206.8125 83 C207.46677979 83.60569824 208.12105957 84.21139648 208.79516602 84.83544922 C213.31702169 89.08704234 217.40709699 93.5971566 221.4375 98.3125 C222.38600848 99.38459625 223.3364147 100.4550177 224.2890625 101.5234375 C260.04509334 142.07670923 283.46483645 193.09670279 292.4375 246.3125 C292.66397217 247.56740234 292.66397217 247.56740234 292.89501953 248.84765625 C298.21906318 279.31014547 298.07117115 313.91350099 292.4375 344.3125 C292.25477539 345.36501953 292.07205078 346.41753906 291.88378906 347.50195312 C287.13225288 374.32589628 278.65931829 400.93770382 266.4375 425.3125 C265.86032227 426.48111572 265.86032227 426.48111572 265.27148438 427.67333984 C249.66679978 459.067871 227.54045259 491.16567681 200.3125 513.7421875 C198.98611046 514.85303874 197.69722563 516.00939892 196.4375 517.1953125 C156.6075559 554.67418351 102.87757444 578.05756514 49.4375 587.3125 C48.09969482 587.55806641 48.09969482 587.55806641 46.73486328 587.80859375 C-29.41271098 601.2963983 -110.1639833 579.86804418 -172.97827148 536.21313477 C-176.09972298 533.91738608 -178.99476659 531.44547911 -181.8659668 528.84692383 C-184.04097564 526.87974429 -186.32638631 525.07020304 -188.625 523.25 C-194.03678937 518.85716679 -199.11612616 514.15687619 -204.17211914 509.36108398 C-207.15943314 506.53152657 -210.17002528 503.76657815 -213.3125 501.109375 C-215.66463825 499.11295323 -217.81705073 497.1127435 -219.8125 494.75 C-220.39128906 494.06679688 -220.97007812 493.38359375 -221.56640625 492.6796875 C-222.22511719 491.89851563 -222.88382812 491.11734375 -223.5625 490.3125 C-224.78259766 488.92417969 -224.78259766 488.92417969 -226.02734375 487.5078125 C-272.01814335 434.88808691 -295.12232698 365.05357056 -294.875 295.6875 C-294.87317719 294.62634979 -294.87135437 293.56519958 -294.86947632 292.47189331 C-294.82525858 277.19084905 -294.37880099 262.36695931 -291.5625 247.3125 C-291.39621094 246.33555176 -291.22992188 245.35860352 -291.05859375 244.35205078 C-281.41977985 187.72401911 -254.70475015 130.85201993 -212.93359375 90.68359375 C-211.38771394 89.19518757 -211.38771394 89.19518757 -209.625 86.8125 C-207.29030598 83.98256785 -204.72603544 81.75223696 -201.9375 79.37890625 C-199.24075985 77.0325649 -196.66143266 74.57915516 -194.0625 72.125 C-142.31947961 24.12123755 -69.74562315 -0.25518356 0 0 Z " fill="#EC5549" transform="translate(302.5625,-0.31250000000000006)"/>
<path d="M0 0 C1.74665102 -0.00600258 3.49329941 -0.01281201 5.23994446 -0.02035522 C9.93675416 -0.03784959 14.63349075 -0.04270361 19.3303299 -0.0439868 C22.27945187 -0.04541877 25.22855587 -0.04970797 28.17767334 -0.05498123 C38.50827186 -0.07342888 48.83881914 -0.08165874 59.16943359 -0.08007812 C68.7305872 -0.07887914 78.29151422 -0.0999474 87.85261059 -0.13156545 C96.1173694 -0.15790207 104.38205501 -0.16843816 112.64685535 -0.16716731 C117.55807817 -0.16666262 122.46909933 -0.17206724 127.38027954 -0.19352341 C153.36595832 -0.29916306 178.24842028 0.24590949 202.94921875 9.29052734 C204.17382812 9.73138672 205.3984375 10.17224609 206.66015625 10.62646484 C220.7677589 15.97966417 234.12383304 22.85901728 245.94921875 32.29052734 C246.93019531 33.06912109 247.91117187 33.84771484 248.921875 34.64990234 C257.78673106 41.79784952 257.78673106 41.79784952 260.94921875 45.29052734 C260.94921875 45.95052734 260.94921875 46.61052734 260.94921875 47.29052734 C261.60921875 47.29052734 262.26921875 47.29052734 262.94921875 47.29052734 C262.94921875 47.95052734 262.94921875 48.61052734 262.94921875 49.29052734 C263.60921875 49.29052734 264.26921875 49.29052734 264.94921875 49.29052734 C280.87426863 63.89216588 291.3687451 86.81444492 296.94921875 107.29052734 C297.28824219 108.49966797 297.62726563 109.70880859 297.9765625 110.95458984 C302.18960025 129.08812562 301.89937999 150.32400585 296.94921875 168.29052734 C296.76697754 168.95294434 296.58473633 169.61536133 296.39697266 170.29785156 C285.90971558 207.66472828 261.84317724 237.13410128 228.24609375 256.38354492 C220.40987358 260.7337995 212.37808188 264.26178275 203.94921875 267.29052734 C203.28857422 267.5299707 202.62792969 267.76941406 201.94726562 268.01611328 C191.49524497 271.72838268 180.93338235 273.85254922 169.94921875 275.29052734 C168.95414401 275.42422714 168.95414401 275.42422714 167.93896675 275.56062794 C159.58377778 276.54043719 151.21772279 276.4387244 142.81982422 276.43579102 C141.10048856 276.43878781 139.38115358 276.44219153 137.66181946 276.44596863 C133.01478769 276.45476126 128.36777436 276.45714478 123.72073507 276.45778441 C120.80957062 276.45849777 117.89841077 276.46063751 114.98724747 276.46328163 C104.8085526 276.47252037 94.62987079 276.47661849 84.45117188 276.47583008 C75.00025422 276.47523014 65.54939379 276.48576937 56.0984906 276.50157374 C47.95457916 276.51470154 39.8106863 276.52001176 31.66676438 276.51937467 C26.81613087 276.51912116 21.96554824 276.52189026 17.11492538 276.53255272 C12.54627308 276.54232201 7.97771937 276.54225319 3.40906334 276.53503609 C1.74516466 276.53400102 0.08125954 276.53628785 -1.58262825 276.54239655 C-41.90973485 276.68069998 -79.15612728 264.41951661 -110.05078125 238.29052734 C-110.7571875 237.70658203 -111.46359375 237.12263672 -112.19140625 236.52099609 C-116.97117153 232.48008766 -121.09630821 228.1363775 -125.05078125 223.29052734 C-126.2109375 221.88673828 -126.2109375 221.88673828 -127.39453125 220.45458984 C-140.6768893 204.02197874 -148.65529489 185.60533289 -154.05078125 165.29052734 C-154.2413208 164.65042725 -154.43186035 164.01032715 -154.62817383 163.35083008 C-156.50962581 156.32579202 -156.38778342 149.18178086 -156.36645508 141.96411133 C-156.36332187 139.75664563 -156.38672113 137.55056 -156.41210938 135.34326172 C-156.5093701 113.59843352 -150.33606105 94.28773147 -140.05078125 75.29052734 C-139.55707031 74.37529297 -139.06335938 73.46005859 -138.5546875 72.51708984 C-119.31097486 38.82696403 -85.59182112 16.27632783 -48.84765625 5.76318359 C-47.1467873 5.30549696 -45.44370425 4.85594151 -43.73828125 4.41552734 C-42.99956787 4.22418213 -42.26085449 4.03283691 -41.49975586 3.83569336 C-27.78631549 0.56024222 -14.02061601 -0.0097776 0 0 Z " fill="#FEECDF" transform="translate(230.05078125,92.70947265625)"/>
<path d="M0 0 C3.74379483 1.15717295 5.012684 2.05830347 7.4375 5.0625 C7.94086456 7.44604397 7.94086456 7.44604397 7.94543457 10.14146423 C7.95671387 11.16626389 7.96799316 12.19106354 7.97961426 13.24691772 C7.97151733 14.3654715 7.96342041 15.48402527 7.95507812 16.63647461 C7.9620874 17.81896286 7.96909668 19.00145111 7.97631836 20.21977234 C7.99090606 23.45965849 7.98748809 26.69889087 7.97480202 29.93876719 C7.96466707 33.33171499 7.97406927 36.72461944 7.98034668 40.11756897 C7.98762269 45.81633329 7.97803785 51.51489022 7.95898438 57.21362305 C7.93722589 63.79732779 7.94425929 70.38053684 7.96629 76.96422952 C7.98445799 82.62043554 7.98699525 88.27649256 7.97653532 93.93271834 C7.97030663 97.30929755 7.96944703 100.68564401 7.98268127 104.06220818 C7.99282914 107.82819078 7.97736778 111.59321938 7.95507812 115.35913086 C7.96317505 116.4756604 7.97127197 117.59218994 7.97961426 118.74255371 C7.89705569 126.26419214 7.89705569 126.26419214 5.61999512 130.21974182 C2.49619935 132.85727359 0.50582659 133.27662245 -3.5625 133.0625 C-6.5 130.4375 -6.5 130.4375 -8.5625 127.0625 C-8.69140625 124.3515625 -8.69140625 124.3515625 -8.5625 122.0625 C-9.09617187 122.44921875 -9.62984375 122.8359375 -10.1796875 123.234375 C-21.78540312 131.34632848 -33.42600255 134.64719742 -47.5546875 132.63671875 C-59.47228063 130.11390358 -70.35251155 123.06112457 -77.05859375 112.765625 C-78.30460585 110.5619953 -79.45092768 108.33636277 -80.5625 106.0625 C-81.14 104.99 -81.7175 103.9175 -82.3125 102.8125 C-86.49696784 93.60667076 -86.00240466 79.98969377 -83.65625 70.33203125 C-82.47779561 67.41233495 -81.16264956 64.77174793 -79.5625 62.0625 C-78.89347656 60.8559375 -78.89347656 60.8559375 -78.2109375 59.625 C-72.0327795 49.40860465 -62.15550712 41.85272674 -50.64453125 38.50463867 C-41.49721405 36.56212091 -29.98327696 36.94800028 -21.5625 41.0625 C-20.84707031 41.38734375 -20.13164062 41.7121875 -19.39453125 42.046875 C-15.79729398 43.75048463 -12.73393297 45.6518004 -9.5625 48.0625 C-9.55839111 46.78608643 -9.55428223 45.50967285 -9.55004883 44.19458008 C-9.52824921 39.45117006 -9.47395054 34.70858855 -9.40991211 29.96557617 C-9.38673941 27.91422476 -9.37233811 25.8627545 -9.36694336 23.8112793 C-9.35764857 20.8591105 -9.31664636 17.90880914 -9.26953125 14.95703125 C-9.2734639 14.04226517 -9.27739655 13.12749908 -9.28144836 12.18501282 C-9.17871918 7.68470553 -9.00265975 5.65300561 -6.2409668 1.94799805 C-3.5625 0.0625 -3.5625 0.0625 0 0 Z " fill="#797B7A" transform="translate(465.5625,133.9375)"/>
<path d="M0 0 C-0.103125 -1.0725 -0.20625 -2.145 -0.3125 -3.25 C0 -7 0 -7 2.0625 -9.5 C5.91260646 -11.46601181 7.89200092 -11.21718491 12 -10 C14.68206045 -7.5209986 14.9960694 -6.03623898 15.39440918 -2.36366272 C15.41828111 -0.88071177 15.42561675 0.60256122 15.41992188 2.08569336 C15.42839142 2.89754593 15.43686096 3.7093985 15.44558716 4.54585266 C15.4689705 7.22734273 15.46997903 9.90825947 15.46875 12.58984375 C15.47585069 14.45545176 15.48354955 16.32105758 15.49182129 18.18666077 C15.50526909 22.0964261 15.50683349 26.00598949 15.50097656 29.91577148 C15.49507964 34.92419044 15.5256701 39.9316403 15.56609344 44.93987179 C15.59195241 48.79266066 15.59484952 52.64521561 15.59120178 56.4980793 C15.59289467 58.34446206 15.60255344 60.19085544 15.62034607 62.03715324 C15.64250129 64.62039792 15.63285278 67.20167374 15.61523438 69.78491211 C15.62849762 70.54611359 15.64176086 71.30731506 15.65542603 72.09158325 C15.59296004 76.03656542 15.11909163 77.8449707 12.68811035 81.00953674 C10 83 10 83 6.375 83.0625 C3 82 3 82 1.0625 80.3125 C-0.26497346 77.42329305 -0.07318903 75.14712834 0 72 C-0.65484375 72.45890625 -1.3096875 72.9178125 -1.984375 73.390625 C-13.11721233 80.87541394 -23.45977475 84.52873511 -37 83 C-47.97196729 80.47019407 -58.08967918 73.89071764 -65 65 C-72.493014 52.24122616 -75.92901676 39.93072549 -73.53515625 25.125 C-70.17707252 12.72592163 -62.86444034 2.28306632 -52.19140625 -4.88671875 C-34.02511588 -15.29265207 -16.66897425 -11.68140715 0 0 Z " fill="#787979" transform="translate(189,184)"/>
<path d="M0 0 C5.90270987 2.68200798 9.80507837 7.2153591 12.94921875 12.7890625 C14.86260216 20.63393447 12.66238956 27.14830311 10.26171875 34.6015625 C7.13734976 44.75224151 5.05575141 54.70527195 3.82421875 65.24560547 C3.58677892 67.24575778 3.30438163 69.24042234 3.01953125 71.234375 C0.38271658 92.54994266 3.72561467 112.27903576 10.88085938 132.29467773 C11.4000293 133.75562866 11.4000293 133.75562866 11.9296875 135.24609375 C12.40378052 136.54317261 12.40378052 136.54317261 12.88745117 137.86645508 C13.60788007 140.47336788 13.70104378 142.66052214 13.57421875 145.3515625 C-4.31949937 140.08189147 -26.30590207 127.47144168 -39.42578125 114.3515625 C-44.13535662 91.39987055 -41.53545279 62.87831727 -36.42578125 40.3515625 C-36.19552246 39.32417969 -35.96526367 38.29679687 -35.72802734 37.23828125 C-35.01184651 34.1218619 -34.26199349 31.01667364 -33.48828125 27.9140625 C-33.25995605 26.99633057 -33.03163086 26.07859863 -32.79638672 25.13305664 C-30.66764145 17.18500945 -27.91657502 8.5464427 -21.23828125 3.2890625 C-20.22701172 2.46728516 -20.22701172 2.46728516 -19.1953125 1.62890625 C-13.91815261 -2.18043434 -6.09750656 -1.62992929 0 0 Z " fill="#F8A137" transform="translate(164.42578125,417.6484375)"/>
<path d="M0 0 C8.25886806 4.1804147 11.34837292 11.01842175 14.25 19.4375 C15.59911441 24.11419726 16.75088366 28.82728426 17.875 33.5625 C18.1740625 34.76648438 18.473125 35.97046875 18.78125 37.2109375 C22.48733702 52.62563573 23.62337398 67.5240043 23.62060547 83.31420898 C23.62505459 86.15991905 23.66174346 89.00416424 23.69921875 91.84960938 C23.70507546 93.67447395 23.7090525 95.49934575 23.7109375 97.32421875 C23.72530853 98.16691818 23.73967957 99.00961761 23.75448608 99.87785339 C23.72388363 103.80110305 23.57032846 105.91425113 21.48217773 109.32519531 C19.41586215 111.28054502 17.4871091 112.85048003 15.07421875 114.34765625 C13.84819946 115.11203003 13.84819946 115.11203003 12.59741211 115.8918457 C11.71964111 116.42253662 10.84187012 116.95322754 9.9375 117.5 C9.02556885 118.0571167 8.1136377 118.6142334 7.17407227 119.18823242 C0.13079263 123.43212964 -7.04126177 127.41129147 -14.3125 131.25 C-15.29323486 131.77150635 -16.27396973 132.2930127 -17.28442383 132.83032227 C-18.66150513 133.54273071 -18.66150513 133.54273071 -20.06640625 134.26953125 C-20.87537354 134.68952393 -21.68434082 135.1095166 -22.51782227 135.54223633 C-24.75 136.4375 -24.75 136.4375 -28.75 136.4375 C-28.57984375 135.87804687 -28.4096875 135.31859375 -28.234375 134.7421875 C-27.7109102 133.01029863 -27.191855 131.27707438 -26.67578125 129.54296875 C-26.03607463 127.39711743 -25.38703354 125.25403465 -24.73046875 123.11328125 C-24.38628906 121.96214844 -24.04210937 120.81101562 -23.6875 119.625 C-23.20603516 118.03751953 -23.20603516 118.03751953 -22.71484375 116.41796875 C-15.57102338 89.16929179 -19.31357079 59.75968238 -27.79467773 33.33666992 C-30.36965036 25.02085824 -32.12348821 16.03855996 -27.875 7.9375 C-20.80608344 -1.30187263 -10.70301714 -4.10551244 0 0 Z " fill="#F8A037" transform="translate(451.75,427.5625)"/>
<path d="M0 0 C0.8109613 0.00247742 1.62192261 0.00495483 2.4574585 0.00750732 C3.31124588 0.00239639 4.16503326 -0.00271454 5.04469299 -0.00798035 C7.87644394 -0.0219186 10.70795265 -0.02091639 13.53973389 -0.01861572 C15.50267122 -0.02250038 17.4656077 -0.02683457 19.42854309 -0.03160095 C23.54693321 -0.03907231 27.66523762 -0.0387653 31.78363037 -0.0335083 C37.06782126 -0.02771301 42.35166171 -0.04464172 47.63579464 -0.06785297 C51.69092367 -0.08256728 55.74596786 -0.08346515 59.80111885 -0.08034325 C61.74961605 -0.08085764 63.69811786 -0.08611736 65.64658928 -0.09615517 C68.36893516 -0.10845748 71.09059282 -0.10176537 73.81292725 -0.09014893 C74.62186432 -0.09779266 75.43080139 -0.1054364 76.26425171 -0.11331177 C81.65014726 -0.06237552 81.65014726 -0.06237552 84.20278931 1.53744507 C85.44262662 3.70690422 85.56242861 5.07362612 85.54046631 7.57000732 C85.54023972 8.43067307 85.54001312 9.29133881 85.53977966 10.17808533 C85.52429581 11.10317398 85.50881195 12.02826263 85.49285889 12.98138428 C85.48861404 13.93156937 85.4843692 14.88175446 85.47999573 15.86073303 C85.46319498 18.89733141 85.42554006 21.93326755 85.38739014 24.96966553 C85.37234511 27.02759866 85.35865639 29.08554218 85.34637451 31.14349365 C85.31328684 36.189973 85.26149476 41.23595697 85.19989014 46.28216553 C79.47979924 48.75162633 73.61416179 49.66784087 67.51239014 50.78216553 C66.39799561 50.99486084 65.28360107 51.20755615 64.13543701 51.42669678 C46.86664808 54.61628612 30.11271868 55.56391172 12.57489014 55.40716553 C10.58531138 55.39710075 8.59572762 55.38798117 6.60614014 55.37982178 C1.80392943 55.35811958 -2.99803223 55.32378908 -7.80010986 55.28216553 C-7.85068951 47.77080144 -7.88579244 40.25948104 -7.90997314 32.74798584 C-7.92005024 30.191003 -7.93371212 27.63403173 -7.95098877 25.0770874 C-7.97516204 21.40843861 -7.98657572 17.73994174 -7.99542236 14.07122803 C-8.00574493 12.9222403 -8.0160675 11.77325256 -8.02670288 10.58944702 C-8.02685394 9.52849823 -8.027005 8.46754944 -8.02716064 7.37445068 C-8.03160187 6.4373526 -8.03604309 5.50025452 -8.0406189 4.53475952 C-7.51006607 -0.43436821 -4.21376262 0.04040512 0 0 Z " fill="#FEFDFD" transform="translate(291.80010986328125,534.7178344726563)"/>
<path d="M0 0 C11.89028364 7.2980029 15.70230894 23.54947095 18.87109375 36.1484375 C19.21140625 37.45361328 19.21140625 37.45361328 19.55859375 38.78515625 C21.19096303 45.46200006 22.03040932 51.0576989 18.28173828 57.23291016 C17.70721924 58.11922119 17.70721924 58.11922119 17.12109375 59.0234375 C16.72132324 59.66200684 16.32155273 60.30057617 15.90966797 60.95849609 C7.19296418 74.69320321 -2.46269452 87.40489049 -13.265625 99.55078125 C-14.18794922 100.58912109 -14.18794922 100.58912109 -15.12890625 101.6484375 C-15.67675781 102.26460938 -16.22460938 102.88078125 -16.7890625 103.515625 C-18.2762364 105.22527617 -18.2762364 105.22527617 -19.56640625 107.7734375 C-21.9916075 111.4597434 -25.53313777 113.66300133 -29.12890625 116.1484375 C-28.95875 115.58898437 -28.78859375 115.02953125 -28.61328125 114.453125 C-27.77728071 111.68720832 -26.95284285 108.91797229 -26.12890625 106.1484375 C-25.78085937 104.9934375 -25.4328125 103.8384375 -25.07421875 102.6484375 C-24.72101562 101.4521875 -24.3678125 100.2559375 -24.00390625 99.0234375 C-23.67132812 97.90710938 -23.33875 96.79078125 -22.99609375 95.640625 C-17.997609 75.51159182 -19.97569381 53.00340985 -27.81640625 34.0234375 C-31.16670538 25.85773164 -33.52046236 18.13625149 -30.08203125 9.52734375 C-23.66068996 -1.45747885 -11.61636436 -5.0953067 0 0 Z " fill="#F8A137" transform="translate(537.12890625,389.8515625)"/>
<path d="M0 0 C4.34473891 3.24060072 8.16626127 7.23706507 9.890625 12.41015625 C10.78426799 19.86472249 9.97820264 26.1080524 7.140625 33.03515625 C-3.59067178 59.48845696 -1.01202141 85.32815165 5.890625 112.41015625 C4.73372231 111.25325356 3.57786023 110.09530013 2.42578125 108.93359375 C1.42829981 107.94372667 0.41583059 106.96865911 -0.61328125 106.01171875 C-6.84004337 100.1000458 -11.94987891 93.24334698 -17.109375 86.41015625 C-17.52590332 85.85972656 -17.94243164 85.30929687 -18.37158203 84.7421875 C-24.02821781 77.20304889 -29.12962343 69.34783401 -34.109375 61.34765625 C-34.67382324 60.44265381 -35.23827148 59.53765137 -35.81982422 58.60522461 C-36.34850098 57.74550049 -36.87717773 56.88577637 -37.421875 56 C-37.89238281 55.23550537 -38.36289062 54.47101074 -38.84765625 53.68334961 C-41.87315085 48.23242465 -42.25282997 45.06667371 -40.546875 39.09765625 C-40.35923584 38.40341553 -40.17159668 37.7091748 -39.97827148 36.99389648 C-39.37437103 34.79346051 -38.74429024 32.60182549 -38.109375 30.41015625 C-37.90860352 29.69698242 -37.70783203 28.98380859 -37.50097656 28.24902344 C-33.95544765 15.72761743 -30.49759689 4.99234224 -18.796875 -1.96484375 C-12.18378882 -3.50277077 -5.98444733 -3.39361952 0 0 Z " fill="#F8A136" transform="translate(83.109375,387.58984375)"/>
<path d="M0 0 C0.70762985 -0.00525696 1.4152597 -0.01051392 2.14433289 -0.01593018 C4.48381614 -0.02913588 6.82261918 -0.02039056 9.16210938 -0.01025391 C10.78731416 -0.01227449 12.41251805 -0.0151858 14.03771973 -0.01895142 C17.44401684 -0.02337552 20.85007797 -0.01694107 24.25634766 -0.00292969 C28.62470534 0.01416243 32.99251009 0.00432168 37.36084747 -0.01364708 C40.71685967 -0.02448268 44.07274058 -0.02103965 47.42875671 -0.0132637 C49.03952601 -0.01126107 50.6503072 -0.01372321 52.26106262 -0.02070236 C54.51160298 -0.02831338 56.76124535 -0.01671869 59.01171875 0 C60.29284546 0.00238678 61.57397217 0.00477356 62.8939209 0.00723267 C66.00585938 0.38818359 66.00585938 0.38818359 67.91873169 1.71153259 C69.73599591 4.51425569 69.39573917 7.25416313 69.40429688 10.54052734 C69.40716705 11.23706924 69.41003723 11.93361115 69.41299438 12.65126038 C69.41503388 14.12306532 69.40951189 15.59489745 69.39697266 17.06665039 C69.3809397 19.3144224 69.39681069 21.56038994 69.41601562 23.80810547 C69.4140327 25.23975005 69.41018799 26.67139351 69.40429688 28.10302734 C69.40091309 29.40361084 69.3975293 30.70419434 69.39404297 32.04418945 C68.96878897 35.70752532 68.6414087 36.87734574 66.00585938 39.38818359 C62.8939209 39.88938904 62.8939209 39.88938904 59.01171875 39.88989258 C57.95027397 39.89799706 57.95027397 39.89799706 56.86738586 39.90626526 C54.52770187 39.91877533 52.18924305 39.90224796 49.84960938 39.88427734 C48.22440527 39.88443228 46.59920078 39.88592038 44.97399902 39.88868713 C41.56762359 39.89007214 38.1616687 39.8774966 34.75537109 39.85473633 C30.38698876 39.82635105 26.01930533 39.82908749 21.65087128 39.84182644 C18.29484071 39.84877839 14.93897195 39.84099995 11.58296204 39.82856941 C9.97219971 39.82405017 8.36142004 39.82372223 6.75065613 39.82763481 C4.50007468 39.83054238 2.25045942 39.81406337 0 39.79223633 C-1.28112671 39.78683334 -2.56225342 39.78143036 -3.88220215 39.77586365 C-6.99414062 39.38818359 -6.99414062 39.38818359 -8.90701294 38.0705719 C-10.71608658 35.27093357 -10.42068248 32.207363 -10.39257812 28.98193359 C-10.3954483 28.26082397 -10.39831848 27.53971436 -10.40127563 26.79675293 C-10.40331514 25.27367364 -10.39779309 23.7505681 -10.38525391 22.22753906 C-10.36919706 19.89637682 -10.38510472 17.56694818 -10.40429688 15.23583984 C-10.40231442 13.75536727 -10.3984707 12.27489577 -10.39257812 10.79443359 C-10.39865082 10.0974939 -10.40472351 9.4005542 -10.41098022 8.68249512 C-10.34187231 3.92663424 -10.34187231 3.92663424 -8.90701294 1.70480347 C-5.99004881 -0.30292748 -3.51091248 0.00654094 0 0 Z " fill="#FEFCFC" transform="translate(300.994140625,476.61181640625)"/>
<path d="M0 0 C6.54423614 5.6602365 10.41552157 13.57073722 11.19140625 22.10546875 C11.66432094 31.70106029 9.09012529 40.01686053 2.9375 47.4375 C-3.51897633 53.97823703 -10.23943674 57.17100182 -19.4375 57.6875 C-28.34986445 57.29539835 -35.93034305 53.65956684 -42 47.125 C-48.36788227 39.01759867 -50.79631384 31.24885406 -50 21 C-48.25679042 11.32370953 -43.89209541 3.81206302 -35.9375 -2 C-24.93445345 -9.50918817 -10.50453629 -7.25389473 0 0 Z " fill="#FDEBDE" transform="translate(446,194)"/>
<path d="M0 0 C0.96679688 0.61488281 0.96679688 0.61488281 1.953125 1.2421875 C2.57703125 1.63148438 3.2009375 2.02078125 3.84375 2.421875 C9.93018089 6.89407856 14.11194433 13.81909183 15.27099609 21.29150391 C16.26196095 32.32191624 14.78656045 41.67157842 7.828125 50.5546875 C1.55401216 57.08029431 -4.63852807 59.52632393 -13.671875 59.8046875 C-19.72366117 59.59116682 -24.12580994 58.7887905 -29.046875 55.2421875 C-29.93375 54.6440625 -30.820625 54.0459375 -31.734375 53.4296875 C-37.80339555 47.68872212 -41.65882708 41.09012861 -42.33203125 32.6796875 C-42.56235473 22.5855105 -41.44833916 15.32824749 -35.046875 7.2421875 C-25.24637388 -2.53992619 -13.24685632 -7.11405247 0 0 Z " fill="#FDECDF" transform="translate(173.046875,191.7578125)"/>
<path d="M0 0 C4.56218732 0.81467631 5.69924583 1.93979715 8.5 5.625 C9.25164908 7.15583108 9.97863465 8.69889393 10.6875 10.25 C17.00759893 23.39893647 28.75962831 31.71191357 42 37.125 C57.48384383 41.6923243 74.51794261 39.29794008 88.68359375 31.98046875 C99.71737193 25.34822488 106.59874367 16.56684323 112.25 5.0625 C113.5 2.625 113.5 2.625 116.5 0.625 C120.86253463 0.05948625 122.79752588 0.13177349 126.4375 2.6875 C128.5 5.625 128.5 5.625 129.1875 8.75 C127.46271172 18.47153392 120.84485754 26.35406858 114.5 33.625 C113.98050781 34.23988281 113.46101563 34.85476563 112.92578125 35.48828125 C102.55678886 46.84977165 85.19647378 55.71819101 69.79956055 56.81787109 C45.79339438 57.48185859 28.05431713 53.81611667 9.5 37.625 C8.88511719 37.10550781 8.27023438 36.58601563 7.63671875 36.05078125 C0.73771508 29.75444917 -7.74743592 18.53800349 -8.9375 9.1875 C-8.5 5.625 -8.5 5.625 -6.4375 2.6875 C-3.5 0.625 -3.5 0.625 0 0 Z " fill="#787979" transform="translate(241.5,250.375)"/>
<path d="M0 0 C3 0.25 3 0.25 5 2.25 C5.17201285 4.79229159 5.23257617 7.21149996 5.1875 9.75 C5.18685547 10.43964844 5.18621094 11.12929688 5.18554688 11.83984375 C5.14055525 16.96888951 5.14055525 16.96888951 4 19.25 C4.80219971 19.23428955 5.60439941 19.2185791 6.4309082 19.20239258 C10.05803404 19.14011417 13.68504749 19.10103136 17.3125 19.0625 C18.57513672 19.03736328 19.83777344 19.01222656 21.13867188 18.98632812 C22.34716797 18.97666016 23.55566406 18.96699219 24.80078125 18.95703125 C25.91622314 18.9413208 27.03166504 18.92561035 28.1809082 18.90942383 C31 19.25 31 19.25 32.94995117 20.33081055 C34.69654326 23.52308221 33.84701378 25.78819493 33 29.25 C31.88198122 31.97964624 30.52298843 34.54034008 29.10546875 37.125 C28.71684158 37.85315918 28.32821442 38.58131836 27.92781067 39.33154297 C26.69090914 41.64315533 25.43941709 43.94649186 24.1875 46.25 C23.35777127 47.79636419 22.52898622 49.34323513 21.70117188 50.890625 C20.16992525 53.74525499 18.63562818 56.59812789 17.09057617 59.4453125 C16.78270676 60.01266113 16.47483734 60.58000977 16.15763855 61.16455078 C15.14392042 62.99073192 14.03096313 64.76109494 12.90345764 66.51930237 C10.76119587 70.28006496 10.48428407 73.39202333 10.45410156 77.74584961 C10.44376389 78.45888245 10.43342621 79.17191528 10.42277527 79.90655518 C10.39352488 82.23872009 10.39185197 84.57001046 10.390625 86.90234375 C10.37563122 88.52903379 10.35890157 90.15570867 10.34051514 91.78236389 C10.29696336 96.04514291 10.27686974 100.3077166 10.26177979 104.57067871 C10.24216457 108.92810139 10.20019963 113.28530376 10.16015625 117.64257812 C10.08498614 126.17832756 10.03461507 134.71399018 10 143.25 C8.35369672 143.10957123 6.70795821 142.96250671 5.0625 142.8125 C3.68771484 142.69068359 3.68771484 142.69068359 2.28515625 142.56640625 C0 142.25 0 142.25 -1 141.25 C-1.12221525 139.80815707 -1.17772758 138.36056856 -1.20532227 136.91381836 C-1.22526749 135.9929393 -1.24521271 135.07206024 -1.26576233 134.12327576 C-1.28247482 133.12224319 -1.29918732 132.12121063 -1.31640625 131.08984375 C-1.33718735 130.07024063 -1.35796844 129.05063751 -1.37937927 128.00013733 C-1.44498852 124.72932952 -1.50381234 121.45843863 -1.5625 118.1875 C-1.60567442 115.97590272 -1.64928834 113.76431397 -1.69335938 111.55273438 C-1.8006814 106.11857849 -1.90242623 100.68433918 -2 95.25 C-2.87011719 96.96509766 -2.87011719 96.96509766 -3.7578125 98.71484375 C-4.54576122 100.20631811 -5.3348855 101.69717184 -6.125 103.1875 C-6.50398438 103.94224609 -6.88296875 104.69699219 -7.2734375 105.47460938 C-10.24522 110.99717185 -10.24522 110.99717185 -14.18359375 112.31640625 C-17 112.25 -17 112.25 -18.9375 111.25 C-20.57154833 108.17414432 -19.89042912 105.47813723 -19 102.25 C-17.5070249 98.91758038 -15.69636917 95.78730073 -13.875 92.625 C-12.77811067 90.67102983 -11.68452962 88.71519991 -10.59375 86.7578125 C-10.01109375 85.71270508 -9.4284375 84.66759766 -8.828125 83.59082031 C-5.56125163 77.62074883 -2.47709207 71.55682197 0.625 65.5 C5.29868868 56.38912971 10.05333576 47.338775 15.11962891 38.43847656 C16.65931638 35.72610846 18.01060282 33.21819154 19 30.25 C17.77369873 30.27094727 16.54739746 30.29189453 15.28393555 30.31347656 C10.73864396 30.38582066 6.19340333 30.43177934 1.64770508 30.46972656 C-0.3204809 30.48985481 -2.28860699 30.51716019 -4.2565918 30.55175781 C-7.0839718 30.60022311 -9.91056201 30.62295618 -12.73828125 30.640625 C-13.61962234 30.66127014 -14.50096344 30.68191528 -15.40901184 30.70318604 C-21.48821559 30.70542418 -21.48821559 30.70542418 -24.09057617 28.38964844 C-25.28425976 25.58120736 -24.97758615 24.10755951 -24 21.25 C-20.97906785 18.22906785 -17.43627928 18.78323166 -13.375 18.625 C-12.17230469 18.56699219 -12.17230469 18.56699219 -10.9453125 18.5078125 C-8.96392444 18.41346069 -6.98199355 18.33063785 -5 18.25 C-5.02320313 17.11820312 -5.04640625 15.98640625 -5.0703125 14.8203125 C-5.08906901 13.33854825 -5.10726934 11.85677688 -5.125 10.375 C-5.14175781 9.62863281 -5.15851563 8.88226563 -5.17578125 8.11328125 C-5.1933959 6.15805539 -5.10320189 4.20257979 -5 2.25 C-3 0.25 -3 0.25 0 0 Z " fill="#FEF9F9" transform="translate(242,442.75)"/>
<path d="M0 0 C18.81 0 37.62 0 57 0 C57 6.27 57 12.54 57 19 C38.19 19 19.38 19 0 19 C0 12.73 0 6.46 0 0 Z " fill="#F05B50" transform="translate(302,487)"/>
<path d="M0 0 C5.41914846 2.35132512 7.68751589 4.88366536 9.91015625 10.34765625 C10.46262552 14.42211711 10.53560668 16.38542482 8.28515625 19.84765625 C5.91015625 21.34765625 5.91015625 21.34765625 2.91015625 21.59765625 C-1.06833564 19.9399513 -1.76722925 17.89874426 -3.42578125 14.0625 C-3.64492188 13.49660156 -3.8640625 12.93070313 -4.08984375 12.34765625 C-5.07984375 12.67765625 -6.06984375 13.00765625 -7.08984375 13.34765625 C-7.50234375 14.50265625 -7.91484375 15.65765625 -8.33984375 16.84765625 C-8.91734375 18.00265625 -9.49484375 19.15765625 -10.08984375 20.34765625 C-13.58984375 21.47265625 -13.58984375 21.47265625 -17.08984375 21.34765625 C-20.46349449 19.36999892 -21.04779977 15.95473157 -22.08984375 12.34765625 C-23.07984375 12.67765625 -24.06984375 13.00765625 -25.08984375 13.34765625 C-25.78642738 15.00204238 -26.45081258 16.67019943 -27.08984375 18.34765625 C-28.40234375 20.16015625 -28.40234375 20.16015625 -30.08984375 21.34765625 C-32.58984375 21.72265625 -32.58984375 21.72265625 -35.08984375 21.34765625 C-37.10302881 19.78561869 -37.97103922 18.82287437 -38.59375 16.33203125 C-38.71462079 11.72282503 -38.30349376 9.00088649 -35.27734375 5.41015625 C-32.68479713 2.70238533 -30.44387154 0.47132133 -26.56640625 0.1171875 C-25.62539063 0.13136719 -24.684375 0.14554688 -23.71484375 0.16015625 C-22.77898437 0.16660156 -21.843125 0.17304688 -20.87890625 0.1796875 C-18.08984375 0.34765625 -18.08984375 0.34765625 -15.35546875 0.91796875 C-13.09033695 1.58463848 -13.09033695 1.58463848 -11.21484375 0.41015625 C-7.48319628 -1.45566749 -3.94408888 -1.2311455 0 0 Z " fill="#F05A4E" transform="translate(316.08984375,215.65234375)"/>
<path d="M0 0 C1.07585609 -0.0076664 1.07585609 -0.0076664 2.17344666 -0.01548767 C4.55069258 -0.02941809 6.92764969 -0.02842432 9.30493164 -0.02612305 C10.95398568 -0.03000819 12.60303872 -0.03434248 14.25209045 -0.03910828 C17.71138754 -0.04657797 21.17058259 -0.04627389 24.62988281 -0.04101562 C29.06662151 -0.03522102 33.50294274 -0.05214791 37.93961239 -0.0753603 C41.34622141 -0.09008076 44.75272951 -0.09097164 48.1593647 -0.08785057 C49.79526153 -0.08836467 51.43116388 -0.093619 53.06702995 -0.10366249 C55.3535575 -0.11597682 57.63926714 -0.10926601 59.92578125 -0.09765625 C61.87864296 -0.09860039 61.87864296 -0.09860039 63.87095642 -0.0995636 C67.02758789 0.2746582 67.02758789 0.2746582 68.98316956 1.63777161 C70.02758789 3.2746582 70.02758789 3.2746582 69.84008789 5.8371582 C69.02758789 8.2746582 69.02758789 8.2746582 67.02758789 10.2746582 C64.03590393 10.53535461 64.03590393 10.53535461 60.14697266 10.54931641 C59.43948883 10.55442734 58.732005 10.55953827 58.00308228 10.56480408 C55.6583008 10.57873382 53.31381214 10.57774078 50.96899414 10.57543945 C49.34236033 10.57932464 47.71572754 10.58365894 46.08909607 10.58842468 C42.67687697 10.59589424 39.26476133 10.59559041 35.85253906 10.59033203 C31.47633228 10.58453748 27.10054875 10.60146422 22.72441196 10.6246767 C19.36412574 10.6393977 16.00394182 10.64028797 12.64362907 10.63716698 C11.03006082 10.63768105 9.41648698 10.64293492 7.80294991 10.6529789 C5.54755159 10.66529426 3.29298236 10.65858184 1.03759766 10.64697266 C-0.88861671 10.64791679 -0.88861671 10.64791679 -2.85374451 10.64888 C-5.97241211 10.2746582 -5.97241211 10.2746582 -7.89100647 8.9115448 C-9.42118092 6.59537226 -9.32035544 4.9886162 -8.97241211 2.2746582 C-6.08960639 -0.60814751 -4.0368608 0.014295 0 0 Z " fill="#FEFDFD" transform="translate(299.972412109375,447.725341796875)"/>
<path d="M0 0 C10.23 0 20.46 0 31 0 C31 6.27 31 12.54 31 19 C20.77 19 10.54 19 0 19 C0 12.73 0 6.46 0 0 Z " fill="#F05F53" transform="translate(335,545)"/>
<path d="M0 0 C10.23 0 20.46 0 31 0 C31 6.27 31 12.54 31 19 C20.77 19 10.54 19 0 19 C0 12.73 0 6.46 0 0 Z " fill="#F05E52" transform="translate(294,545)"/>
<path d="M0 0 C10.23 0 20.46 0 31 0 C31 4.95 31 9.9 31 15 C31.66 15.33 32.32 15.66 33 16 C22.11 16 11.22 16 0 16 C0 10.72 0 5.44 0 0 Z " fill="#F05C50" transform="translate(294,574)"/>
<path d="M0 0 C10.23 0 20.46 0 31 0 C31.495 4.95 31.495 4.95 32 10 C8.27659574 14.57446809 8.27659574 14.57446809 -3 15 C-2.01 14.67 -1.02 14.34 0 14 C0 9.38 0 4.76 0 0 Z " fill="#F05E53" transform="translate(335,574)"/>
<path d="M0 0 C2.4375 0.75 2.4375 0.75 4.4375 2.75 C4.89405797 6.71048822 4.76152042 10.7037381 4.75 14.6875 C4.76611328 15.79802734 4.78222656 16.90855469 4.79882812 18.05273438 C4.79947266 19.11685547 4.80011719 20.18097656 4.80078125 21.27734375 C4.80376221 22.25437256 4.80674316 23.23140137 4.80981445 24.23803711 C4.4375 26.75 4.4375 26.75 3.07495117 28.57250977 C0.77101027 30.2292724 -0.7936325 30.10498301 -3.5625 29.75 C-6.77147523 26.54102477 -5.85797614 22.80367956 -5.88476562 18.4296875 C-5.88154297 17.21539063 -5.87832031 16.00109375 -5.875 14.75 C-5.89111328 13.53570313 -5.90722656 12.32140625 -5.92382812 11.0703125 C-5.92447266 9.91273438 -5.92511719 8.75515625 -5.92578125 7.5625 C-5.92876221 6.49644531 -5.93174316 5.43039062 -5.93481445 4.33203125 C-5.81195068 3.47996094 -5.68908691 2.62789062 -5.5625 1.75 C-2.5625 -0.25 -2.5625 -0.25 0 0 Z " fill="#FEFDFC" transform="translate(268.5625,515.25)"/>
<path d="M0 0 C0.66 0.33 1.32 0.66 2 1 C-2.62 5.62 -7.24 10.24 -12 15 C-12 11.11566834 -10.82920314 10.32394504 -8.25 7.5 C-7.55390625 6.7265625 -6.8578125 5.953125 -6.140625 5.15625 C-4.19891408 3.20036601 -2.25069252 1.58156772 0 0 Z " fill="#8F8D8A" transform="translate(401,179)"/>
<path d="M0 0 C0.66 0.33 1.32 0.66 2 1 C-1.3 4.3 -4.6 7.6 -8 11 C-8 8 -8 8 -5.6875 5.5 C-4.800625 4.675 -3.91375 3.85 -3 3 C-2.401875 2.401875 -1.80375 1.80375 -1.1875 1.1875 C-0.795625 0.795625 -0.40375 0.40375 0 0 Z " fill="#E9DACF" transform="translate(410,192)"/>
</svg>
