<svg class="banner" xmlns="http://www.w3.org/2000/svg" xmlns:xlink="http://www.w3.org/1999/xlink" viewBox="0 0 1200 158" width="1200" height="158">
    <defs>
        <pattern id="planet1Texture" width="72" height="72" patternTransform="matrix(.22 0 0 .22 -45.72 49.24)" patternUnits="userSpaceOnUse" viewBox="0 0 72 72">
            <g style="fill:#303">
                <circle cx="36" cy="25.16" r="14.31" />
                <circle cx="36" cy="48.77" r="14.31" />
                <circle cx="21.69" cy="38.18" r="14.31" />
                <circle cx="50.31" cy="38.18" r="14.31" />
            </g>
            <path d="M45.47 28.22 26.59 48.15m-.03-19.93 18.88 19.93" style="fill:none;stroke:#606;stroke-width:3px" />
        </pattern>
        <pattern id="planet2Texture" width="26.54" height="23.33" xmlns="http://www.w3.org/2000/svg" patternUnits="userSpaceOnUse" viewBox="0 0 26.54 23.33">
            <path style="fill:#308" d="M0 0h26.54v23.33H0z" />
            <g style="fill:none;stroke:#333">
                <path class="cls-1" d="M4.37 22.98c0-3.65 4.05-6.6 9.05-6.6s9.06 2.95 9.06 6.6" />
                <path class="cls-1" d="M.65 22.84c0-6 5.72-10.83 12.77-10.83S26.2 16.86 26.2 22.84" />
                <path class="cls-1" d="M9.27 22.91a5.29 5.29 0 0 1 4.17-1.89 5.28 5.28 0 0 1 4.18 1.9M.35 5c5 0 9.05 3 9.05 6.6" />
                <path class="cls-1" d="M.35.63c7.05 0 12.77 4.85 12.77 10.83M.35 9.65c2.76 0 5 1.9 5 4.25m11.79-2.3c0-3.64 4.06-6.6 9.06-6.6" />
                <path class="cls-1" d="M13.42 11.46c0-6 5.72-10.83 12.78-10.83M21.19 13.9c0-2.35 2.24-4.25 5-4.25" />
                <path class="cls-1" d="M22.45.34a5 5 0 0 1 0 .53M4.37.87a5 5 0 0 1 0-.52m12.9.04a3.86 3.86 0 0 1 1.22 2.77m-10.08 0A3.9 3.9 0 0 1 9.64.38" />
            </g>
        </pattern>
        <pattern id="planet3Texture" width="13.41" height="22.5" patternTransform="scale(.8)" patternUnits="userSpaceOnUse" viewBox="0 0 13.41 17.89">
            <path d="m7.41.69 1.44 1.44m2.43 2.44 1.44 1.44m-5.31 0 1.44-1.44m2.43-2.44L12.72.69M.69 11.88l1.44 1.45m2.44 2.43 1.44 1.44m-5.32 0 1.44-1.44m2.44-2.43 1.44-1.45" style="fill:#fff;stroke:#000;stroke-width:2px" />
        </pattern>
        <pattern id="planet4Texture" width="33.3" height="27" patternUnits="userSpaceOnUse" viewBox="0 0 100 81">
            <image xlink:href="./planet-bits--x100.webp" width="100" height="81"/>
        </pattern>
        <g id="flower">
            <path d="M19.91 15.83a2 2 0 0 0 .58-3.25c-1.55-1.57-3.33.08-3.33.08a2.33 2.33 0 0 0-3.16-1.8c-2.17.94-1.11 3.6-1.11 3.6a2 2 0 0 0-1.95 3c1 3 2.75 1.42 2.75 1.42s-.22 2.92 2 2.92c0 0 2.4-.31 1.73-2.3a2.56 2.56 0 0 0 3.42.17c2.08-1.33 0-3.5-.42-3.65Z" transform="translate(-10.7 -10.7)" style="fill:#b0b" />
            <circle class="flowerTexture-stroke" cx="5.49" cy="5.38" r="1.24" />
            <path d="m4.78 4.37-.89-1.88m1.6 1.65-.5-2.13m1.35 2.47 1.6-1.73M6.67 4.99l2.01-.97M6.67 5.78l2.43.85M6.42 6.2l1.76 1.49M4.99 6.63l-.65 2.15m1.15-2.15.18 2.15m-1.42-3.4-2.1-.39m2.1.93-2.1.71" class="flowerTexture-stroke" />
        </g>
        <linearGradient id="bgGradient" x1="690.47" y1="829.54" x2="690.47" y2="641.54" gradientTransform="translate(-89.47 -654.54)" gradientUnits="userSpaceOnUse">
            <stop offset="0" stop-color="#303" />
            <stop offset="1" />
        </linearGradient>
        <style>
            .softBlue { fill: #309; opacity: .6 }
            .flowerTexture-stroke { fill: none; stroke: #15274c; stroke-width: .7px; opacity: .7 }
        </style>
    </defs>

    <path style="fill:url(#bgGradient)" d="M-13.5-13h1229v188h-1229z" />

    <g id="flowers">
        <use xlink:href="#flower" transform="translate(240 70)" />
        <use xlink:href="#flower" transform="translate(420 60)" />
        <use xlink:href="#flower" transform="translate(790 110)" />
        <use xlink:href="#flower" transform="translate(1000 70)" />
    </g>

    <circle cx="110.1" cy="168.04" r="104.54" style="fill:url(#planet1Texture)" />
    <circle cx="223.96" cy="7.34" r="50.77" style="fill:url(#planet2Texture)" />
    <circle cx="454.46" cy="3.97" r="36.49" style="fill:#308" />
    <circle cx="454.46" cy="3.97" r="36.49" style="fill:url(#planet3Texture)" />
    <circle cx="1091.05" cy="20.1" r="60.77" style="fill:url(#planet4Texture)" />
    
    <path class="softBlue" d="M1027.64 15.12c-18 .51-34.71 2.79-36.8 7-4.26 8.65 34.23 21.07 86.59 28.37s100.73 7.26 105-1.39c2.06-4.19-10.56-10.4-25.42-15.48l-.01 2.48c6.89 3 10.08 6.41 8.9 8.81-3.31 6.71-40.8 7.21-84.65 1.1S1005 29.51 1008.3 22.8c1.22-2.48 7.92-4.54 17.15-5.3Z" />

</svg>