<svg class="banner" xmlns="http://www.w3.org/2000/svg" xmlns:xlink="http://www.w3.org/1999/xlink" viewBox="0 0 1200 158"
    width="1200" height="158">
    <defs>
        <pattern id="planet1Texture" width="72" height="72" patternTransform="matrix(.22 0 0 .22 -45.72 49.24)"
            patternUnits="userSpaceOnUse" viewBox="0 0 72 72">
            <g style="fill:#303">
                <circle cx="36" cy="25.16" r="14.31" />
                <circle cx="36" cy="48.77" r="14.31" />
                <circle cx="21.69" cy="38.18" r="14.31" />
                <circle cx="50.31" cy="38.18" r="14.31" />
            </g>
            <path d="M45.47 28.22 26.59 48.15m-.03-19.93 18.88 19.93" style="fill:none;stroke:#606;stroke-width:3px" />
        </pattern>
        <pattern id="planet2Texture" width="26.54" height="23.33" xmlns="http://www.w3.org/2000/svg"
            patternUnits="userSpaceOnUse" viewBox="0 0 26.54 23.33">
            <path style="fill:#308" d="M0 0h26.54v23.33H0z" />
            <g style="fill:none;stroke:#333">
                <path class="cls-1" d="M4.37 22.98c0-3.65 4.05-6.6 9.05-6.6s9.06 2.95 9.06 6.6" />
                <path class="cls-1" d="M.65 22.84c0-6 5.72-10.83 12.77-10.83S26.2 16.86 26.2 22.84" />
                <path class="cls-1"
                    d="M9.27 22.91a5.29 5.29 0 0 1 4.17-1.89 5.28 5.28 0 0 1 4.18 1.9M.35 5c5 0 9.05 3 9.05 6.6" />
                <path class="cls-1"
                    d="M.35.63c7.05 0 12.77 4.85 12.77 10.83M.35 9.65c2.76 0 5 1.9 5 4.25m11.79-2.3c0-3.64 4.06-6.6 9.06-6.6" />
                <path class="cls-1" d="M13.42 11.46c0-6 5.72-10.83 12.78-10.83M21.19 13.9c0-2.35 2.24-4.25 5-4.25" />
                <path class="cls-1"
                    d="M22.45.34a5 5 0 0 1 0 .53M4.37.87a5 5 0 0 1 0-.52m12.9.04a3.86 3.86 0 0 1 1.22 2.77m-10.08 0A3.9 3.9 0 0 1 9.64.38" />
            </g>
        </pattern>
        <pattern id="planet3Texture" width="13.41" height="22.5" patternTransform="scale(.8)"
            patternUnits="userSpaceOnUse" viewBox="0 0 13.41 17.89">
            <path
                d="m7.41.69 1.44 1.44m2.43 2.44 1.44 1.44m-5.31 0 1.44-1.44m2.43-2.44L12.72.69M.69 11.88l1.44 1.45m2.44 2.43 1.44 1.44m-5.32 0 1.44-1.44m2.44-2.43 1.44-1.45"
                style="fill:#fff;stroke:#000;stroke-width:2px" />
        </pattern>
        <pattern id="planet4Texture" width="33.3" height="27" patternUnits="userSpaceOnUse" viewBox="0 0 100 81">
            <path d="M0 0 C33 0 66 0 100 0 C100 26.73 100 53.46 100 81 C67 81 34 81 0 81 C0 54.27 0 27.54 0 0 Z "
                fill="#870390" transform="translate(0,0)" />
            <path
                d="M0 0 C6.27 0 12.54 0 19 0 C19.99 1.98 20.98 3.96 22 6 C24.07690578 6.96044102 24.07690578 6.96044102 26 7 C26 9 26 9 24.6875 10.625 C23 12 23 12 20 12 C20 12.66 20 13.32 20 14 C18.83370548 15.06860995 17.61494068 16.0802998 16.375 17.0625 C7.92803662 24.251405 4.49090767 32.16861951 3 43 C4.12277344 42.96519531 5.24554688 42.93039063 6.40234375 42.89453125 C14.54792426 42.72000257 21.39617663 42.68196798 29 46 C29.66 44.68 30.32 43.36 31 42 C31.66 42 32.32 42 33 42 C33.2784375 41.13375 33.2784375 41.13375 33.5625 40.25 C35.67199057 36.94818867 38.41722796 35.3589825 42 34 C45.3298206 33.41352505 48.62362884 33.13587007 52 33 C52 33.66 52 34.32 52 35 C49.36 35 46.72 35 44 35 C44 35.66 44 36.32 44 37 C46.97 37 49.94 37 53 37 C53 37.66 53 38.32 53 39 C53.845625 39.04125 54.69125 39.0825 55.5625 39.125 C60.11007889 40.28256554 62.9423564 42.46935076 66 46 C66.9375 48.875 66.9375 48.875 67 51 C66.01 51.433125 65.02 51.86625 64 52.3125 C57.22270258 56.14974783 52.56959467 63.81296109 50 71 C49.01 70.34 48.02 69.68 47 69 C45.52565835 72.89597867 45.52565835 72.89597867 46 81 C30.82 81 15.64 81 0 81 C0 54.27 0 27.54 0 0 Z "
                fill="#830390" transform="translate(0,0)" />
            <path
                d="M0 0 C1.5234375 1.28125 1.5234375 1.28125 3.5234375 4.28125 C4.2865625 4.69375 5.0496875 5.10625 5.8359375 5.53125 C9.33249253 7.80807653 11.47513579 10.66403633 13.5234375 14.28125 C13.5234375 14.94125 13.5234375 15.60125 13.5234375 16.28125 C14.1834375 16.28125 14.8434375 16.28125 15.5234375 16.28125 C17.31619616 19.40035856 17.86634468 21.95807428 18.1484375 25.53125 C18.26058594 26.86929688 18.26058594 26.86929688 18.375 28.234375 C18.42398438 28.90984375 18.47296875 29.5853125 18.5234375 30.28125 C17.56824219 30.30703125 16.61304687 30.3328125 15.62890625 30.359375 C7.22436913 30.72806855 0.30732553 31.80196533 -7.4765625 35.28125 C-10.4765625 30.53125 -10.4765625 30.53125 -10.4765625 28.28125 C-11.0128125 28.013125 -11.5490625 27.745 -12.1015625 27.46875 C-14.4765625 26.28125 -14.4765625 26.28125 -17.1015625 24.71875 C-24.30832474 21.64920312 -31.15467705 21.71859009 -38.4765625 24.28125 C-42.69829109 26.57951533 -42.69829109 26.57951533 -45.4765625 30.28125 C-46.1365625 30.28125 -46.7965625 30.28125 -47.4765625 30.28125 C-48.4665625 32.75625 -48.4665625 32.75625 -49.4765625 35.28125 C-50.6109375 34.806875 -51.7453125 34.3325 -52.9140625 33.84375 C-60.1580319 31.37474435 -67.89747927 31.53359605 -75.4765625 31.28125 C-75.77967722 20.48773027 -71.91358163 14.12405152 -64.6953125 6.3125 C-62.66822422 4.45671496 -60.99346927 3.33377465 -58.4765625 2.28125 C-58.4765625 1.62125 -58.4765625 0.96125 -58.4765625 0.28125 C-41.4963716 -9.18847185 -16.75728596 -11.03011228 0 0 Z "
                fill="#41007F" transform="translate(78.4765625,11.71875)" />
            <path
                d="M0 0 C0 11.88 0 23.76 0 36 C-15.84 36 -31.68 36 -48 36 C-45.60690412 24.03452062 -42.14473837 16.07319711 -32 9 C-31.01 8.67 -30.02 8.34 -29 8 C-28.55398437 7.52820312 -28.10796875 7.05640625 -27.6484375 6.5703125 C-25.49822052 4.52200154 -23.42063199 3.84772675 -20.625 2.875 C-19.68914062 2.54242188 -18.75328125 2.20984375 -17.7890625 1.8671875 C-11.37126567 -0.12826193 -7.25025518 0 0 0 Z "
                fill="#3A0074" transform="translate(100,45)" />
            <path
                d="M0 0 C14.38742069 0 25.67420959 3.74856677 36.375 13.625 C42.47388164 20.04436428 46 27.1029003 46 36 C30.82 36 15.64 36 0 36 C0 24.12 0 12.24 0 0 Z "
                fill="#47008B" transform="translate(0,45)" />
            <path
                d="M0 0 C4.70253569 1.5675119 6.95066812 5.22336577 10 9 C10.51691406 9.56460937 11.03382812 10.12921875 11.56640625 10.7109375 C16.83919802 17.35074936 15.40926639 25.99656836 15 34 C14.04480469 34.09796875 13.08960938 34.1959375 12.10546875 34.296875 C4.64778012 35.15937937 -1.9216003 36.3266345 -8.92578125 39.1953125 C-11 40 -11 40 -13 40 C-13.33 40.99 -13.66 41.98 -14 43 C-15.03125 43.53625 -16.0625 44.0725 -17.125 44.625 C-24.84720745 48.77211141 -29.10480619 56.89459717 -31.6171875 64.98828125 C-32.10383432 66.65154675 -32.55559954 68.3249521 -33 70 C-34.98 70 -36.96 70 -39 70 C-39.33 66.37 -39.66 62.74 -40 59 C-39.01 58.34 -38.02 57.68 -37 57 C-36.34 57.33 -35.68 57.66 -35 58 C-34.46375 56.824375 -33.9275 55.64875 -33.375 54.4375 C-30.55309706 48.79369412 -26.53520586 43.24477585 -21 40 C-20.01 40 -19.02 40 -18 40 C-19.97502685 35.42625362 -21.80536013 32.73139341 -26 30 C-29.17921787 28.74443113 -29.17921787 28.74443113 -32 28 C-32 27.34 -32 26.68 -32 26 C-34.97 26 -37.94 26 -41 26 C-41 25.34 -41 24.68 -41 24 C-32.47157799 22.64823282 -26.25908073 22.13239725 -19 27.23046875 C-16.31247285 29.60830039 -14.66197295 31.82714254 -13 35 C-12.45214844 34.71125 -11.90429688 34.4225 -11.33984375 34.125 C-3.43273677 30.42215966 3.42857834 30.58857176 12 31 C11.68872484 29.41642541 11.37592711 27.83315007 11.0625 26.25 C10.88847656 25.36828125 10.71445313 24.4865625 10.53515625 23.578125 C10.07631512 21.36764947 9.56663926 19.18487932 9 17 C8.34 17 7.68 17 7 17 C5.703125 15.171875 5.703125 15.171875 4.25 12.75 C1.56249411 8.53715293 -0.78256234 6.55007858 -5 4 C-5.495 2.515 -5.495 2.515 -6 1 C-4.02 1.66 -2.04 2.32 0 3 C0 3.66 0 4.32 0 5 C0.66 5 1.32 5 2 5 C2 4.01 2 3.02 2 2 C1.34 2 0.68 2 0 2 C0 1.34 0 0.68 0 0 Z "
                fill="#820390" transform="translate(85,11)" />
            <path
                d="M0 0 C1.91020328 2.40544117 2.35165132 4.1023619 2.6875 7.125 C1.6975 7.558125 0.7075 7.99125 -0.3125 8.4375 C-7.08979742 12.27474783 -11.74290533 19.93796109 -14.3125 27.125 C-17.76909248 22.75877792 -20.95592509 17.98716753 -23.34375 12.94921875 C-25.04572415 9.74429161 -28.01305945 9.22481352 -31.3125 8.125 C-31.07634353 3.16571415 -29.68115053 0.63101038 -26.11328125 -2.61328125 C-17.90141681 -8.3669303 -7.3728203 -5.9779624 0 0 Z "
                fill="#430081" transform="translate(64.3125,43.875)" />
            <path
                d="M0 0 C4.62 0 9.24 0 14 0 C14 9.24 14 18.48 14 28 C10.57091843 24.57091843 8.5940459 21.8847355 6.24609375 17.8046875 C4.96268683 15.70825181 4.96268683 15.70825181 2 14 C2 13.34 2 12.68 2 12 C-0.475 11.01 -0.475 11.01 -3 10 C-3.3367697 5.06071112 -3.16130459 4.21507278 0 0 Z "
                fill="#420080" transform="translate(86,0)" />
            <path
                d="M0 0 C12 0 12 0 14.75 2.125 C16.29022071 5.66750763 16.91262676 7.19738851 16 11 C14.1754024 12.86504434 12.21450687 14.4399839 10.171875 16.0625 C7.21056612 18.70424318 5.29629669 21.72304922 3.2265625 25.08203125 C2 27 2 27 0 29 C0 19.43 0 9.86 0 0 Z "
                fill="#430081" transform="translate(0,0)" />
            <path
                d="M0 0 C6.93 0 13.86 0 21 0 C21 0.66 21 1.32 21 2 C20.67 2.33 20.34 2.66 20 3 C26.6 3.33 33.2 3.66 40 4 C40 4.33 40 4.66 40 5 C38.15148438 5.05607422 38.15148438 5.05607422 36.265625 5.11328125 C24.90172906 5.53514548 14.61224143 6.60676027 4 11 C4.33 10.34 4.66 9.68 5 9 C5.66 9 6.32 9 7 9 C7 8.34 7 7.68 7 7 C5.35 7 3.7 7 2 7 C1.34 4.69 0.68 2.38 0 0 Z "
                fill="#81048F" transform="translate(19,0)" />
            <path
                d="M0 0 C8.58 0 17.16 0 26 0 C25.34 1.32 24.68 2.64 24 4 C20.6089059 5.11338112 17.45488538 5.07419613 13.91796875 4.87890625 C12.98662109 4.83056641 12.05527344 4.78222656 11.09570312 4.73242188 C10.13599609 4.67634766 9.17628906 4.62027344 8.1875 4.5625 C7.20845703 4.51029297 6.22941406 4.45808594 5.22070312 4.40429688 C2.8134391 4.27512661 0.40664362 4.14018357 -2 4 C-2 3.34 -2 2.68 -2 2 C-1.34 2 -0.68 2 0 2 C0 1.34 0 0.68 0 0 Z "
                fill="#89018F" transform="translate(40,0)" />
            <path
                d="M0 0 C4.62 0 9.24 0 14 0 C13.34 1.98 12.68 3.96 12 6 C10.02 6 8.04 6 6 6 C6 6.66 6 7.32 6 8 C-2.57142857 7.14285714 -2.57142857 7.14285714 -6 5 C-5.195625 4.54625 -4.39125 4.0925 -3.5625 3.625 C-0.91143428 2.25274335 -0.91143428 2.25274335 0 0 Z "
                fill="#850391" transform="translate(66,0)" />
            <path
                d="M0 0 C0 2.64 0 5.28 0 8 C-5.61 8 -11.22 8 -17 8 C-17 7.34 -17 6.68 -17 6 C-11.38411924 2.61799181 -6.72281251 0 0 0 Z "
                fill="#820490" transform="translate(100,73)" />
            <path
                d="M0 0 C6.95227885 -0.90681898 11.44353939 1.96401956 17 6 C17 6.33 17 6.66 17 7 C11.39 7 5.78 7 0 7 C0 4.69 0 2.38 0 0 Z "
                fill="#7C028F" transform="translate(0,74)" />
            <path
                d="M0 0 C4.29 0 8.58 0 13 0 C13 0.99 13 1.98 13 3 C9.37 4.32 5.74 5.64 2 7 C1.34 4.69 0.68 2.38 0 0 Z "
                fill="#4B0080" transform="translate(19,0)" />
            <path
                d="M0 0 C4.29 0 8.58 0 13 0 C12.34 1.98 11.68 3.96 11 6 C9.5410574 5.52269162 8.08286504 5.04308958 6.625 4.5625 C5.81289062 4.29566406 5.00078125 4.02882813 4.1640625 3.75390625 C2 3 2 3 0 2 C0 1.34 0 0.68 0 0 Z "
                fill="#49017D" transform="translate(67,0)" />
            <path
                d="M0 0 C0.33 0.66 0.66 1.32 1 2 C3.64 1.67 6.28 1.34 9 1 C9 1.99 9 2.98 9 4 C3.39 4 -2.22 4 -8 4 C-8 3.34 -8 2.68 -8 2 C-4.77208445 -0.1519437 -3.71599191 -0.20086443 0 0 Z "
                fill="#84028E" transform="translate(91,77)" />
            <path
                d="M0 0 C0.33 0 0.66 0 1 0 C1 2.31 1 4.62 1 7 C2.19238281 6.97679687 3.38476562 6.95359375 4.61328125 6.9296875 C6.17968124 6.91092822 7.746088 6.89272819 9.3125 6.875 C10.09818359 6.85824219 10.88386719 6.84148438 11.69335938 6.82421875 C12.45068359 6.81777344 13.20800781 6.81132813 13.98828125 6.8046875 C14.68477783 6.79421387 15.38127441 6.78374023 16.09887695 6.77294922 C18 7 18 7 21 9 C15.555 8.505 15.555 8.505 10 8 C10 8.66 10 9.32 10 10 C6.04 9.67 2.08 9.34 -2 9 C-1.34 8.67 -0.68 8.34 0 8 C0 5.36 0 2.72 0 0 Z "
                fill="#780990" transform="translate(2,36)" />
            <path
                d="M0 0 C0 3.58344991 -0.8582157 4.60509431 -2.875 7.5 C-3.40867187 8.2734375 -3.94234375 9.046875 -4.4921875 9.84375 C-4.98976563 10.5553125 -5.48734375 11.266875 -6 12 C-8.25619542 14.91216721 -8.25619542 14.91216721 -8.5 18.625 C-8.665 19.73875 -8.83 20.8525 -9 22 C-9.66 22.33 -10.32 22.66 -11 23 C-10.6904406 13.40365868 -6.9507554 6.58889395 0 0 Z "
                fill="#48006E" transform="translate(64,57)" />
            <path
                d="M0 0 C2.0625 1.75 2.0625 1.75 4 4 C3.75 6.25 3.75 6.25 3 8 C2.01 7.67 1.02 7.34 0 7 C0 4.69 0 2.38 0 0 Z "
                fill="#530092" transform="translate(12,1)" />
            <path d="M0 0 C0 0.99 0 1.98 0 3 C-3.3 3 -6.6 3 -10 3 C-7.02931146 0.02931146 -4.09966187 0 0 0 Z "
                fill="#49007B" transform="translate(100,78)" />
            <path
                d="M0 0 C1.0828125 0.495 1.0828125 0.495 2.1875 1 C5.01697427 2.00603529 7.02895466 2.16977402 10 2 C7.61426621 3.89213369 5.92824652 5.02391783 3 6 C2.01 4.02 1.02 2.04 0 0 Z "
                fill="#550084" transform="translate(68,41)" />
        </pattern>
        <g id="flower">
            <path
                d="M19.91 15.83a2 2 0 0 0 .58-3.25c-1.55-1.57-3.33.08-3.33.08a2.33 2.33 0 0 0-3.16-1.8c-2.17.94-1.11 3.6-1.11 3.6a2 2 0 0 0-1.95 3c1 3 2.75 1.42 2.75 1.42s-.22 2.92 2 2.92c0 0 2.4-.31 1.73-2.3a2.56 2.56 0 0 0 3.42.17c2.08-1.33 0-3.5-.42-3.65Z"
                transform="translate(-10.7 -10.7)" style="fill:#b0b" />
            <circle class="flowerTexture-stroke" cx="5.49" cy="5.38" r="1.24" />
            <path
                d="m4.78 4.37-.89-1.88m1.6 1.65-.5-2.13m1.35 2.47 1.6-1.73M6.67 4.99l2.01-.97M6.67 5.78l2.43.85M6.42 6.2l1.76 1.49M4.99 6.63l-.65 2.15m1.15-2.15.18 2.15m-1.42-3.4-2.1-.39m2.1.93-2.1.71"
                class="flowerTexture-stroke" />
        </g>
        <linearGradient id="bgGradient" x1="690.47" y1="829.54" x2="690.47" y2="641.54"
            gradientTransform="translate(-89.47 -654.54)" gradientUnits="userSpaceOnUse">
            <stop offset="0" stop-color="#303" />
            <stop offset="1" />
        </linearGradient>
        <style>
            .softBlue {
                fill: #309;
                opacity: .6
            }

            .flowerTexture-stroke {
                fill: none;
                stroke: #15274c;
                stroke-width: .7px;
                opacity: .7
            }
        </style>
    </defs>

    <path style="fill:url(#bgGradient)" d="M-13.5-13h1229v188h-1229z" />

    <g id="flowers">
        <use xlink:href="#flower" transform="translate(240 70)" />
        <use xlink:href="#flower" transform="translate(420 60)" />
        <use xlink:href="#flower" transform="translate(790 110)" />
        <use xlink:href="#flower" transform="translate(1000 70)" />
    </g>

    <circle cx="110.1" cy="168.04" r="104.54" style="fill:url(#planet1Texture)" />
    <circle cx="223.96" cy="7.34" r="50.77" style="fill:url(#planet2Texture)" />
    <circle cx="454.46" cy="3.97" r="36.49" style="fill:#308" />
    <circle cx="454.46" cy="3.97" r="36.49" style="fill:url(#planet3Texture)" />
    <circle cx="1091.05" cy="20.1" r="60.77" style="fill:url(#planet4Texture)" />

    <path class="softBlue"
        d="M1027.64 15.12c-18 .51-34.71 2.79-36.8 7-4.26 8.65 34.23 21.07 86.59 28.37s100.73 7.26 105-1.39c2.06-4.19-10.56-10.4-25.42-15.48l-.01 2.48c6.89 3 10.08 6.41 8.9 8.81-3.31 6.71-40.8 7.21-84.65 1.1S1005 29.51 1008.3 22.8c1.22-2.48 7.92-4.54 17.15-5.3Z" />

</svg>