<?xml version="1.0" encoding="UTF-8"?>
<svg version="1.1" xmlns="http://www.w3.org/2000/svg" width="200" height="162">
    <path d="M0 0 C66 0 132 0 200 0 C200 53.46 200 106.92 200 162 C134 162 68 162 0 162 C0 108.54 0 55.08 0 0 Z "
        fill="#91038D" transform="translate(0,0)" />
    <path
        d="M0 0 C1.27629272 -0.01075562 1.27629272 -0.01075562 2.57836914 -0.02172852 C19.44413363 -0.09813246 37.79185359 2.09097219 51.625 12.625 C52.65625 13.016875 53.6875 13.40875 54.75 13.8125 C64.26304688 17.75940243 72.99084511 26.87110571 79.625 34.625 C79.98836031 35.95046527 80.33166249 37.28230048 80.625 38.625 C81.615 38.955 82.605 39.285 83.625 39.625 C90.71205144 50.77099908 93.90573309 62.4635723 93.625 75.625 C92.87516846 75.63958252 92.12533691 75.65416504 91.3527832 75.66918945 C87.88056277 75.74470151 84.4091985 75.84101336 80.9375 75.9375 C79.75865234 75.96005859 78.57980469 75.98261719 77.36523438 76.00585938 C65.9337245 76.35037063 55.62762912 78.04579988 45.55078125 83.63671875 C43.625 84.625 43.625 84.625 41.625 84.625 C40.15234375 82.54296875 40.15234375 82.54296875 38.5625 79.8125 C38.03527344 78.91917969 37.50804687 78.02585937 36.96484375 77.10546875 C35.625 74.625 35.625 74.625 34.625 71.625 C33.31683826 70.91020276 31.97929761 70.2479769 30.625 69.625 C29.48596897 68.70459815 28.36169437 67.7657402 27.25 66.8125 C17.51906733 59.4465992 4.68739586 56.58210524 -7.328125 57.96484375 C-20.05362954 60.56778786 -30.89783404 66.69219681 -38.73828125 77.01171875 C-40.29523825 79.49764771 -41.39584453 81.86646555 -42.375 84.625 C-46.89169212 85.00139101 -46.89169212 85.00139101 -49.10546875 83.27734375 C-61.6993734 74.10828752 -80.70307848 75.70770896 -95.375 75.625 C-95.85266036 67.86622189 -95.00919611 62.10444316 -91.75 55.0625 C-91.38173096 54.2367749 -91.01346191 53.4110498 -90.6340332 52.56030273 C-80.72271897 30.70884096 -64.56905059 15.7702629 -42.375 6.625 C-41.64249023 6.31868652 -40.90998047 6.01237305 -40.15527344 5.69677734 C-27.05654388 0.52269531 -13.89828257 0.04724267 0 0 Z "
        fill="#40007A" transform="translate(100.375,9.375)" />
    <path
        d="M0 0 C66 0 132 0 200 0 C200 29.7 200 59.4 200 90 C191.585 90.495 191.585 90.495 183 91 C179.9934916 91.63667237 176.99015296 92.29047218 174 93 C171.76953125 92.5546875 171.76953125 92.5546875 170 92 C177.5355081 89.84117876 184.63970712 88.61552748 192.48046875 88.30859375 C193.72763672 88.15583984 193.72763672 88.15583984 195 88 C195.33 87.34 195.66 86.68 196 86 C195.34 85.67 194.68 85.34 194 85 C193.78916025 82.99702238 193.583217 80.99346714 193.39453125 78.98828125 C191.85087838 67.29625706 188.83428012 54.38007548 180 46 C178.90846122 44.75715882 177.82565854 43.50661045 176.75 42.25 C169.32633792 33.77245687 161.69301013 26.15080106 151 22 C149.65527842 21.22783566 148.32186303 20.43567381 147 19.625 C136.24605382 13.54902041 123.15093241 10.6989193 110.86328125 10.6640625 C110.02137741 10.6574057 109.17947357 10.6507489 108.3120575 10.64389038 C106.54147501 10.63383415 104.77085516 10.62907116 103.00024414 10.62939453 C100.33609222 10.62503857 97.67362375 10.58869218 95.00976562 10.55078125 C84.55472996 10.48300213 75.93499549 11.53271308 66 15 C64.33682115 15.45057757 62.67073918 15.8908193 61 16.3125 C42.52437176 21.97634013 25.94024649 34.41826139 16 51 C13.42701019 55.89189019 11.19830449 60.93137049 9 66 C8.47019531 67.16402344 8.47019531 67.16402344 7.9296875 68.3515625 C5.64434759 73.74318967 5.30796912 79.22292401 5 85 C4.67 85 4.34 85 4 85 C3.67 81.04 3.34 77.08 3 73 C2.01 74.32 1.02 75.64 0 77 C0 51.59 0 26.18 0 0 Z "
        fill="#8F028C" transform="translate(0,0)" />
    <path
        d="M0 0 C0 23.76 0 47.52 0 72 C-31.02 72 -62.04 72 -94 72 C-94 54.46835443 -94 54.46835443 -89 46 C-88.48050781 45.08605469 -87.96101563 44.17210937 -87.42578125 43.23046875 C-80.48053996 31.6550666 -71.19120935 20.19720297 -58 16 C-57.21625 15.21625 -56.4325 14.4325 -55.625 13.625 C-47.06914564 5.06914564 -33.10387672 2.88526579 -21.58203125 1.39453125 C-12.45544554 0 -12.45544554 0 0 0 Z "
        fill="#3A0071" transform="translate(200,90)" />
    <path
        d="M0 0 C18.46090909 0 18.46090909 0 25.5 1.8125 C26.21929688 1.97814453 26.93859375 2.14378906 27.6796875 2.31445312 C32.61498759 3.49482724 37.28494017 5.13807237 42 7 C42.8353125 7.31324219 43.670625 7.62648438 44.53125 7.94921875 C47.265625 8.97460938 47.265625 8.97460938 50 10 C50 10.66 50 11.32 50 12 C50.72574219 12.09023437 51.45148437 12.18046875 52.19921875 12.2734375 C55.50658145 13.13141443 57.20093369 14.43955356 59.8125 16.625 C60.67230469 17.34171875 61.53210937 18.0584375 62.41796875 18.796875 C63.69607422 19.88742188 63.69607422 19.88742188 65 21 C65.80050781 21.66515625 66.60101563 22.3303125 67.42578125 23.015625 C71.55603266 26.50763152 71.55603266 26.50763152 73 28 C73 28.66 73 29.32 73 30 C73.598125 30.268125 74.19625 30.53625 74.8125 30.8125 C83.18509119 35.35762093 87.62020614 47.80218904 90.8984375 56.33984375 C92.41234319 61.70433564 92 66.19083853 92 72 C61.64 72 31.28 72 0 72 C0 48.24 0 24.48 0 0 Z "
        fill="#470086" transform="translate(0,90)" />
    <path
        d="M0 0 C3.99618812 3.64652166 7.6597591 7.63903641 9 13 C9 14.32 9 15.64 9 17 C8.11828125 17.41507813 7.2365625 17.83015625 6.328125 18.2578125 C-8.28239015 25.90603991 -17.38476075 39.36154829 -24 54 C-24.66041221 55.33644227 -25.32459242 56.67107305 -26 58 C-29.10109764 56.44945118 -29.34103007 53.87167376 -30.5625 50.6875 C-36.23733708 36.79767763 -46.47357502 24.76321249 -60 18 C-59.64092398 10.99801762 -55.8272532 5.66305701 -50.84765625 0.97265625 C-35.50759206 -11.43050676 -16.04249823 -10.86210818 0 0 Z "
        fill="#3F007A" transform="translate(125,84)" />
    <path
        d="M0 0 C9.24 0 18.48 0 28 0 C28 18.81 28 37.62 28 57 C24.87515898 54.91677265 23.9182993 53.22179872 22.16796875 49.99609375 C20.48521965 47.12022489 18.46836687 44.54369053 16.43359375 41.91015625 C15 40 15 40 13.0625 36.875 C10.82031303 33.74952726 8.40241999 31.65063075 5.390625 29.296875 C4.93171875 28.86890625 4.4728125 28.4409375 4 28 C4 27.34 4 26.68 4 26 C3.42765625 25.73445313 2.8553125 25.46890625 2.265625 25.1953125 C-0.1076012 23.94323109 -2.12213286 22.5063648 -4.25 20.875 C-4.95640625 20.33617188 -5.6628125 19.79734375 -6.390625 19.2421875 C-6.92171875 18.83226563 -7.4528125 18.42234375 -8 18 C-6.72959706 9.99646149 -4.88341816 7.32512724 0 0 Z "
        fill="#3E007B" transform="translate(172,0)" />
    <path
        d="M0 0 C8.58 0 17.16 0 26 0 C26.66 1.65 27.32 3.3 28 5 C28.495 5.721875 28.99 6.44375 29.5 7.1875 C33.7499656 15.1561855 33.7499656 15.1561855 33 20 C29.93234138 23.80157351 26.37106079 26.73173858 22.55371094 29.75537109 C12.85908634 37.52142958 6.16615516 47.80666383 1 59 C0.67 59 0.34 59 0 59 C0 39.53 0 20.06 0 0 Z "
        fill="#43007F" transform="translate(0,0)" />
    <path
        d="M0 0 C0 4.95 0 9.9 0 15 C-11.22 15 -22.44 15 -34 15 C-34 14.01 -34 13.02 -34 12 C-33.34 12 -32.68 12 -32 12 C-32 11.34 -32 10.68 -32 10 C-22.66610044 2.11804037 -11.98044922 0 0 0 Z "
        fill="#8D0190" transform="translate(200,147)" />
    <path
        d="M0 0 C6.17263616 -0.2848909 10.50882782 0.05426838 16 3 C17.57587891 3.81791016 17.57587891 3.81791016 19.18359375 4.65234375 C29.95328585 10.33134527 29.95328585 10.33134527 33 13 C33 13.66 33 14.32 33 15 C22.11 15 11.22 15 0 15 C0 10.05 0 5.1 0 0 Z "
        fill="#8D0291" transform="translate(0,147)" />
    <path
        d="M0 0 C8.91 0 17.82 0 27 0 C27 1.65 27 3.3 27 5 C25.69675781 5.48919922 25.69675781 5.48919922 24.3671875 5.98828125 C23.21476562 6.42527344 22.06234375 6.86226563 20.875 7.3125 C19.16957031 7.95638672 19.16957031 7.95638672 17.4296875 8.61328125 C13.98489852 9.94572502 13.98489852 9.94572502 10.7578125 11.66796875 C8 13 8 13 5 13 C4.16209211 11.21046815 3.32980604 9.41830305 2.5 7.625 C1.80390625 6.12839844 1.80390625 6.12839844 1.09375 4.6015625 C0 2 0 2 0 0 Z "
        fill="#3E017E" transform="translate(37,0)" />
    <path
        d="M0 0 C8.91 0 17.82 0 27 0 C25.97038242 5.14808788 24.65675751 7.62920538 22 12 C16.52638111 11.4560915 12.41682999 9.44606199 7.625 6.9375 C6.52091797 6.37192383 6.52091797 6.37192383 5.39453125 5.79492188 C3.59260354 4.87055636 1.79576901 3.93627386 0 3 C0 2.01 0 1.02 0 0 Z "
        fill="#3B027A" transform="translate(133,0)" />
    <path
        d="M0 0 C4.69815182 2.34907591 7.01846633 10.19065265 9 15 C11.38598966 22.43136364 12.16533506 29.24870337 12 37 C10.88310791 37.02187378 10.88310791 37.02187378 9.74365234 37.04418945 C-9.84601709 37.30049743 -9.84601709 37.30049743 -29 41 C-29 40.34 -29 39.68 -29 39 C-27.64870353 38.51279787 -26.29375684 38.03571816 -24.9375 37.5625 C-24.18339844 37.29566406 -23.42929688 37.02882812 -22.65234375 36.75390625 C-15.36201717 34.68169266 -8.07197541 34.87956339 -0.5625 34.9375 C0.55060547 34.94201172 1.66371094 34.94652344 2.81054688 34.95117188 C5.54042101 34.96288807 8.27018174 34.97929301 11 35 C10.35482025 32.08318736 9.7088818 29.16654627 9.0625 26.25 C8.78889648 25.0125 8.78889648 25.0125 8.50976562 23.75 C8.24389648 22.55117187 8.24389648 22.55117187 7.97265625 21.328125 C7.81031494 20.5949707 7.64797363 19.86181641 7.48071289 19.10644531 C7.01446454 17.06338247 6.51579351 15.03106238 6 13 C5.34 13 4.68 13 4 13 C3.505 9.535 3.505 9.535 3 6 C2.34 6 1.68 6 1 6 C0.67 4.02 0.34 2.04 0 0 Z "
        fill="#570086" transform="translate(182,48)" />
    <path
        d="M0 0 C1.134375 0.020625 2.26875 0.04125 3.4375 0.0625 C3.4375 2.0425 3.4375 4.0225 3.4375 6.0625 C-2.1725 6.0625 -7.7825 6.0625 -13.5625 6.0625 C-13.5625 5.0725 -13.5625 4.0825 -13.5625 3.0625 C-12.60537109 2.86333984 -12.60537109 2.86333984 -11.62890625 2.66015625 C-10.80261719 2.48355469 -9.97632813 2.30695313 -9.125 2.125 C-8.30128906 1.95097656 -7.47757813 1.77695313 -6.62890625 1.59765625 C-0.49326923 0.00865385 -0.49326923 0.00865385 0 0 Z "
        fill="#3E007C" transform="translate(196.5625,155.9375)" />
    <path
        d="M0 0 C1.93719378 -0.05406122 3.87481921 -0.09282025 5.8125 -0.125 C6.89144531 -0.14820313 7.97039063 -0.17140625 9.08203125 -0.1953125 C12 0 12 0 15 2 C15 2.99 15 3.98 15 5 C10.05 5 5.1 5 0 5 C0 3.35 0 1.7 0 0 Z "
        fill="#400084" transform="translate(0,157)" />
    <path
        d="M0 0 C0.66 0.33 1.32 0.66 2 1 C0 4 0 4 -2.3125 5.3125 C-6.72112585 8.08070693 -9.35543295 11.47647788 -11.375 16.25 C-12.29279328 18.94301062 -12.29279328 18.94301062 -11 21 C-12.32 21 -13.64 21 -15 21 C-14.68664077 14.88949496 -11.82740169 10.57819264 -8 6 C-5.46571465 3.77510676 -2.82962165 1.83135412 0 0 Z "
        fill="#3C0064" transform="translate(80,81)" />
    <path
        d="M0 0 C0.74476089 0.00424484 1.48952179 0.00848969 2.2568512 0.01286316 C4.61042098 0.02951151 6.96310004 0.067135 9.31640625 0.10546875 C10.92251358 0.1205336 12.52863448 0.13421884 14.13476562 0.14648438 C18.04981672 0.17936923 21.96421104 0.23105249 25.87890625 0.29296875 C25.87890625 0.62296875 25.87890625 0.95296875 25.87890625 1.29296875 C24.76201416 1.31484253 24.76201416 1.31484253 23.62255859 1.3371582 C4.03288916 1.59346618 4.03288916 1.59346618 -15.12109375 5.29296875 C-15.12109375 4.63296875 -15.12109375 3.97296875 -15.12109375 3.29296875 C-9.94864685 0.73185426 -5.80016191 -0.12692407 0 0 Z "
        fill="#75018C" transform="translate(168.12109375,83.70703125)" />
    <path
        d="M0 0 C0.66 0.33 1.32 0.66 2 1 C1.38511719 1.64066406 0.77023438 2.28132813 0.13671875 2.94140625 C-4.34156988 7.73396075 -7.95416867 11.72611727 -10 18 C-10.99 17.67 -11.98 17.34 -13 17 C-12.34 17 -11.68 17 -11 17 C-10.96003906 16.443125 -10.92007813 15.88625 -10.87890625 15.3125 C-9.95366302 8.55022851 -7.12341608 5.66137611 -1.8984375 1.43359375 C-0.95871094 0.72396484 -0.95871094 0.72396484 0 0 Z "
        fill="#3F006A" transform="translate(68,76)" />
    <path
        d="M0 0 C0.99 0.33 1.98 0.66 3 1 C2.401875 1.721875 1.80375 2.44375 1.1875 3.1875 C-3.04152866 8.62482257 -4.42374484 12.20018913 -5 19 C-5.99 18.67 -6.98 18.34 -8 18 C-6.83791965 10.67889378 -4.440745 5.90702873 0 0 Z "
        fill="#44006A" transform="translate(172,0)" />
    <path
        d="M0 0 C0.66 0.33 1.32 0.66 2 1 C1.125 7.75 1.125 7.75 0 10 C-0.66 10 -1.32 10 -2 10 C-2.6875 6.6875 -2.6875 6.6875 -3 3 C-1.5625 1.0625 -1.5625 1.0625 0 0 Z "
        fill="#2F0273" transform="translate(100,130)" />
    <path d="M0 0 C4 5 4 5 3.9375 8.625 C3 12 3 12 0 15 C0 10.05 0 5.1 0 0 Z " fill="#380466"
        transform="translate(0,44)" />
    <path
        d="M0 0 C0.66 0.33 1.32 0.66 2 1 C1.360625 1.61875 0.72125 2.2375 0.0625 2.875 C-4.14668062 7.07201536 -8.04656399 11.56422757 -12 16 C-12 11.92092669 -10.43302134 10.94256832 -7.6875 8 C-6.48673828 6.700625 -6.48673828 6.700625 -5.26171875 5.375 C-3.53053313 3.55710561 -1.78926671 1.76031418 0 0 Z "
        fill="#460069" transform="translate(32,31)" />
    <path
        d="M0 0 C0.66 0.99 1.32 1.98 2 3 C1.401875 3.825 0.80375 4.65 0.1875 5.5 C-2.24800901 9.12292799 -3.58074746 12.88416763 -5 17 C-6.30230734 13.99353048 -5.96485975 12.90644333 -4.78515625 9.765625 C-4.21667969 8.60546875 -3.64820313 7.4453125 -3.0625 6.25 C-2.21365234 4.49429688 -2.21365234 4.49429688 -1.34765625 2.703125 C-0.90292969 1.81109375 -0.45820313 0.9190625 0 0 Z "
        fill="#3D0063" transform="translate(14,53)" />
    <path
        d="M0 0 C1.8871875 0.0309375 1.8871875 0.0309375 3.8125 0.0625 C1.51673322 2.35826678 -0.09096249 3.1263375 -3.1875 4.0625 C-6 3.6875 -6 3.6875 -8.1875 3.0625 C-6.45706736 -0.39836529 -3.47359009 -0.0569441 0 0 Z "
        fill="#350078" transform="translate(59.1875,3.9375)" />
    <path
        d="M0 0 C0.99 0.33 1.98 0.66 3 1 C3 2.65 3 4.3 3 6 C-4.42857143 8.42857143 -4.42857143 8.42857143 -8 7 C-5.09399739 5.74335022 -3.20395416 5 0 5 C0 3.35 0 1.7 0 0 Z "
        fill="#78058B" transform="translate(64,0)" />
    <path
        d="M0 0 C1 2 1 2 0.51171875 3.76953125 C0.23972656 4.44371094 -0.03226562 5.11789063 -0.3125 5.8125 C-0.59351562 6.52019531 -0.87453125 7.22789062 -1.1640625 7.95703125 C-1.43992187 8.63121094 -1.71578125 9.30539063 -2 10 C-2.391875 10.99 -2.78375 11.98 -3.1875 13 C-3.455625 13.66 -3.72375 14.32 -4 15 C-4.99 14.67 -5.98 14.34 -7 14 C-4.69 9.38 -2.38 4.76 0 0 Z "
        fill="#7F0789" transform="translate(105,128)" />
    <path d="M0 0 C2.97 0 5.94 0 9 0 C7.3125 2.0625 7.3125 2.0625 5 4 C2.25 3.75 2.25 3.75 0 3 C0 2.01 0 1.02 0 0 Z "
        fill="#350471" transform="translate(133,0)" />
    <path
        d="M0 0 C0.33 0 0.66 0 1 0 C1.2236337 1.41433206 1.42826476 2.83167618 1.625 4.25 C1.74101563 5.03890625 1.85703125 5.8278125 1.9765625 6.640625 C2.00319395 9.32152459 1.36592084 10.72694089 0 13 C-0.33 13 -0.66 13 -1 13 C-1.02696365 11.20841511 -1.04637917 9.41671527 -1.0625 7.625 C-1.07410156 6.62726563 -1.08570312 5.62953125 -1.09765625 4.6015625 C-1 2 -1 2 0 0 Z "
        fill="#27005E" transform="translate(107,149)" />
    <path
        d="M0 0 C4.56749627 1.86083181 7.88579746 5.03688123 10.3125 9.3125 C10.6528125 10.1478125 10.6528125 10.1478125 11 11 C9 11 9 11 7.375 9.625 C6 8 6 8 6 6 C5.34 6 4.68 6 4 6 C4 5.34 4 4.68 4 4 C3.34 4 2.68 4 2 4 C1.34 2.68 0.68 1.36 0 0 Z "
        fill="#8F0792" transform="translate(176,29)" />
    <path
        d="M0 0 C0.99 0.33 1.98 0.66 3 1 C1 5 -1 9 -3 13 C-2.88610125 11.20759337 -2.75852313 9.41605165 -2.625 7.625 C-2.55539063 6.62726562 -2.48578125 5.62953125 -2.4140625 4.6015625 C-2 2 -2 2 0 0 Z "
        fill="#7E0785" transform="translate(167,3)" />
    <path
        d="M0 0 C-2 3 -2 3 -4.6015625 3.73046875 C-6.09816406 3.95669922 -6.09816406 3.95669922 -7.625 4.1875 C-8.62789062 4.34605469 -9.63078125 4.50460938 -10.6640625 4.66796875 C-11.82035156 4.83232422 -11.82035156 4.83232422 -13 5 C-13 4.34 -13 3.68 -13 3 C-8.37802694 0.78145293 -5.23175837 -0.38281159 0 0 Z "
        fill="#5C0084" transform="translate(166,84)" />
    <path
        d="M0 0 C1.93719378 -0.05406122 3.87481921 -0.09282025 5.8125 -0.125 C6.89144531 -0.14820313 7.97039063 -0.17140625 9.08203125 -0.1953125 C12 0 12 0 15 2 C15 2.99 15 3.98 15 5 C14.01 5 13.02 5 12 5 C11.67 4.01 11.34 3.02 11 2 C7.37 1.67 3.74 1.34 0 1 C0 0.67 0 0.34 0 0 Z "
        fill="#62008B" transform="translate(0,157)" />
    <path
        d="M0 0 C-1.93356782 0.69848264 -3.87202298 1.38344814 -5.8125 2.0625 C-6.89144531 2.44535156 -7.97039062 2.82820313 -9.08203125 3.22265625 C-12 4 -12 4 -15 3 C-9.68559837 0.15741308 -5.90359388 -1.6440388 0 0 Z "
        fill="#7D058B" transform="translate(170,93)" />
    <path
        d="M0 0 C0.99 0 1.98 0 3 0 C3 3 3 3 1 6 C0.61500109 7.65549531 0.27206865 9.3222433 0 11 C-0.33 11 -0.66 11 -1 11 C-1.0270043 9.54176788 -1.04639787 8.08339325 -1.0625 6.625 C-1.07410156 5.81289063 -1.08570312 5.00078125 -1.09765625 4.1640625 C-1 2 -1 2 0 0 Z "
        fill="#890384" transform="translate(1,57)" />
    <path
        d="M0 0 C3.8665284 3.222107 4.88059018 6.14922412 6 11 C4.0625 10.3125 4.0625 10.3125 2 9 C1.3125 6.625 1.3125 6.625 1 4 C0.67516582 2.66457061 0.3449145 1.33038449 0 0 Z "
        fill="#5A007F" transform="translate(128,88)" />
    <path
        d="M0 0 C-1.8125 2 -1.8125 2 -4 4 C-4.99 4 -5.98 4 -7 4 C-6.6875 2.0625 -6.6875 2.0625 -6 0 C-3 -1 -3 -1 0 0 Z "
        fill="#3C006A" transform="translate(55,20)" />
    <path d="M0 0 C2.31 0 4.62 0 7 0 C7.66 1.32 8.32 2.64 9 4 C6.03 3.01 3.06 2.02 0 1 C0 0.67 0 0.34 0 0 Z "
        fill="#52007C" transform="translate(142,7)" />
    <path d="M0 0 C1.98 0 3.96 0 6 0 C6 0.99 6 1.98 6 3 C4.02 3 2.04 3 0 3 C0 2.01 0 1.02 0 0 Z " fill="#730087"
        transform="translate(119,0)" />
    <path d="M0 0 C1.98 0 3.96 0 6 0 C6 0.99 6 1.98 6 3 C4.02 3 2.04 3 0 3 C0 2.01 0 1.02 0 0 Z " fill="#63017F"
        transform="translate(73,0)" />
    <path
        d="M0 0 C0.66 0.33 1.32 0.66 2 1 C-0.475 5.455 -0.475 5.455 -3 10 C-3.33 10 -3.66 10 -4 10 C-4.41176754 6.39703406 -4.1535853 5.21597933 -2 2.1875 C-1.34 1.465625 -0.68 0.74375 0 0 Z "
        fill="#44006C" transform="translate(7,44)" />
    <path d="M0 0 C0.8125 1.6875 0.8125 1.6875 1 4 C-1.4375 6.75 -1.4375 6.75 -4 9 C-2.25 2.25 -2.25 2.25 0 0 Z "
        fill="#410170" transform="translate(13,34)" />
    <path d="M0 0 C0.99 0 1.98 0 3 0 C3.33 2.31 3.66 4.62 4 7 C2 5.75 2 5.75 0 4 C0 2.68 0 1.36 0 0 Z " fill="#7E0294"
        transform="translate(26,0)" />
</svg>